G04 EAGLE Gerber RS-274X export*
G75*
%MOMM*%
%FSLAX34Y34*%
%LPD*%
%INSolderpaste Top*%
%IPPOS*%
%AMOC8*
5,1,8,0,0,1.08239X$1,22.5*%
G01*
%ADD10C,0.222250*%
%ADD11C,0.175000*%
%ADD12R,0.600000X1.350000*%
%ADD13R,1.200000X2.000000*%
%ADD14R,0.990600X0.304800*%
%ADD15R,1.800000X0.800000*%
%ADD16C,0.158750*%
%ADD17R,1.050000X2.200000*%
%ADD18R,1.000000X0.800000*%
%ADD19C,0.500000*%
%ADD20R,0.800000X1.600000*%
%ADD21R,2.100000X3.000000*%

G36*
X308497Y69959D02*
X308497Y69959D01*
X308563Y69961D01*
X308606Y69979D01*
X308653Y69987D01*
X308710Y70021D01*
X308770Y70046D01*
X308805Y70077D01*
X308846Y70102D01*
X308888Y70153D01*
X308936Y70197D01*
X308958Y70239D01*
X308987Y70276D01*
X309008Y70338D01*
X309039Y70397D01*
X309047Y70451D01*
X309059Y70488D01*
X309058Y70528D01*
X309066Y70582D01*
X309066Y111582D01*
X309055Y111647D01*
X309053Y111713D01*
X309035Y111756D01*
X309027Y111803D01*
X308993Y111860D01*
X308968Y111920D01*
X308937Y111955D01*
X308912Y111996D01*
X308861Y112038D01*
X308817Y112086D01*
X308775Y112108D01*
X308738Y112137D01*
X308676Y112158D01*
X308617Y112189D01*
X308563Y112197D01*
X308526Y112209D01*
X308486Y112208D01*
X308432Y112216D01*
X291432Y112216D01*
X291367Y112205D01*
X291301Y112203D01*
X291258Y112185D01*
X291211Y112177D01*
X291154Y112143D01*
X291094Y112118D01*
X291059Y112087D01*
X291018Y112062D01*
X290977Y112011D01*
X290928Y111967D01*
X290906Y111925D01*
X290877Y111888D01*
X290856Y111826D01*
X290825Y111767D01*
X290817Y111713D01*
X290805Y111676D01*
X290806Y111636D01*
X290798Y111582D01*
X290798Y70582D01*
X290809Y70517D01*
X290811Y70451D01*
X290829Y70408D01*
X290837Y70361D01*
X290871Y70304D01*
X290896Y70244D01*
X290927Y70209D01*
X290952Y70168D01*
X291003Y70127D01*
X291047Y70078D01*
X291089Y70056D01*
X291126Y70027D01*
X291188Y70006D01*
X291247Y69975D01*
X291301Y69967D01*
X291338Y69955D01*
X291378Y69956D01*
X291432Y69948D01*
X308432Y69948D01*
X308497Y69959D01*
G37*
G36*
X254539Y86961D02*
X254539Y86961D01*
X254563Y86961D01*
X254645Y86995D01*
X254730Y87022D01*
X254751Y87038D01*
X254770Y87046D01*
X254808Y87080D01*
X254880Y87134D01*
X278880Y111134D01*
X278931Y111207D01*
X278987Y111276D01*
X278995Y111298D01*
X279009Y111318D01*
X279031Y111404D01*
X279059Y111488D01*
X279059Y111512D01*
X279065Y111535D01*
X279055Y111624D01*
X279053Y111713D01*
X279044Y111735D01*
X279041Y111758D01*
X279002Y111838D01*
X278968Y111920D01*
X278952Y111938D01*
X278942Y111959D01*
X278877Y112020D01*
X278817Y112086D01*
X278796Y112097D01*
X278779Y112113D01*
X278697Y112148D01*
X278617Y112189D01*
X278591Y112192D01*
X278572Y112201D01*
X278522Y112203D01*
X278432Y112216D01*
X254432Y112216D01*
X254367Y112205D01*
X254301Y112203D01*
X254258Y112185D01*
X254211Y112177D01*
X254154Y112143D01*
X254094Y112118D01*
X254059Y112087D01*
X254018Y112062D01*
X253977Y112011D01*
X253928Y111967D01*
X253906Y111925D01*
X253877Y111888D01*
X253856Y111826D01*
X253825Y111767D01*
X253817Y111713D01*
X253805Y111676D01*
X253806Y111636D01*
X253798Y111582D01*
X253798Y87582D01*
X253814Y87494D01*
X253823Y87406D01*
X253833Y87385D01*
X253837Y87361D01*
X253883Y87284D01*
X253922Y87205D01*
X253939Y87188D01*
X253952Y87168D01*
X254021Y87112D01*
X254085Y87051D01*
X254107Y87042D01*
X254126Y87027D01*
X254210Y86998D01*
X254292Y86963D01*
X254316Y86962D01*
X254338Y86955D01*
X254427Y86957D01*
X254516Y86953D01*
X254539Y86961D01*
G37*
D10*
X22892Y251428D02*
X16224Y251428D01*
X16224Y258096D01*
X22892Y258096D01*
X22892Y251428D01*
X22892Y253540D02*
X16224Y253540D01*
X16224Y255652D02*
X22892Y255652D01*
X22892Y257764D02*
X16224Y257764D01*
X31464Y251428D02*
X38132Y251428D01*
X31464Y251428D02*
X31464Y258096D01*
X38132Y258096D01*
X38132Y251428D01*
X38132Y253540D02*
X31464Y253540D01*
X31464Y255652D02*
X38132Y255652D01*
X38132Y257764D02*
X31464Y257764D01*
X22892Y117062D02*
X16224Y117062D01*
X16224Y123730D01*
X22892Y123730D01*
X22892Y117062D01*
X22892Y119174D02*
X16224Y119174D01*
X16224Y121286D02*
X22892Y121286D01*
X22892Y123398D02*
X16224Y123398D01*
X31464Y117062D02*
X38132Y117062D01*
X31464Y117062D02*
X31464Y123730D01*
X38132Y123730D01*
X38132Y117062D01*
X38132Y119174D02*
X31464Y119174D01*
X31464Y121286D02*
X38132Y121286D01*
X38132Y123398D02*
X31464Y123398D01*
X233902Y102394D02*
X240570Y102394D01*
X240570Y95726D01*
X233902Y95726D01*
X233902Y102394D01*
X233902Y97838D02*
X240570Y97838D01*
X240570Y99950D02*
X233902Y99950D01*
X233902Y102062D02*
X240570Y102062D01*
X225330Y102394D02*
X218662Y102394D01*
X225330Y102394D02*
X225330Y95726D01*
X218662Y95726D01*
X218662Y102394D01*
X218662Y97838D02*
X225330Y97838D01*
X225330Y99950D02*
X218662Y99950D01*
X218662Y102062D02*
X225330Y102062D01*
X233902Y117380D02*
X240570Y117380D01*
X240570Y110712D01*
X233902Y110712D01*
X233902Y117380D01*
X233902Y112824D02*
X240570Y112824D01*
X240570Y114936D02*
X233902Y114936D01*
X233902Y117048D02*
X240570Y117048D01*
X225330Y117380D02*
X218662Y117380D01*
X225330Y117380D02*
X225330Y110712D01*
X218662Y110712D01*
X218662Y117380D01*
X218662Y112824D02*
X225330Y112824D01*
X225330Y114936D02*
X218662Y114936D01*
X218662Y117048D02*
X225330Y117048D01*
X193072Y95472D02*
X186404Y95472D01*
X186404Y102140D01*
X193072Y102140D01*
X193072Y95472D01*
X193072Y97584D02*
X186404Y97584D01*
X186404Y99696D02*
X193072Y99696D01*
X193072Y101808D02*
X186404Y101808D01*
X201644Y95472D02*
X208312Y95472D01*
X201644Y95472D02*
X201644Y102140D01*
X208312Y102140D01*
X208312Y95472D01*
X208312Y97584D02*
X201644Y97584D01*
X201644Y99696D02*
X208312Y99696D01*
X208312Y101808D02*
X201644Y101808D01*
X193072Y110204D02*
X186404Y110204D01*
X186404Y116872D01*
X193072Y116872D01*
X193072Y110204D01*
X193072Y112316D02*
X186404Y112316D01*
X186404Y114428D02*
X193072Y114428D01*
X193072Y116540D02*
X186404Y116540D01*
X201644Y110204D02*
X208312Y110204D01*
X201644Y110204D02*
X201644Y116872D01*
X208312Y116872D01*
X208312Y110204D01*
X208312Y112316D02*
X201644Y112316D01*
X201644Y114428D02*
X208312Y114428D01*
X208312Y116540D02*
X201644Y116540D01*
X101314Y257524D02*
X101314Y264192D01*
X107982Y264192D01*
X107982Y257524D01*
X101314Y257524D01*
X101314Y259636D02*
X107982Y259636D01*
X107982Y261748D02*
X101314Y261748D01*
X101314Y263860D02*
X107982Y263860D01*
X101314Y248952D02*
X101314Y242284D01*
X101314Y248952D02*
X107982Y248952D01*
X107982Y242284D01*
X101314Y242284D01*
X101314Y244396D02*
X107982Y244396D01*
X107982Y246508D02*
X101314Y246508D01*
X101314Y248620D02*
X107982Y248620D01*
D11*
X202353Y86373D02*
X202353Y80503D01*
X202353Y86373D02*
X207603Y86373D01*
X207603Y80503D01*
X202353Y80503D01*
X202353Y82165D02*
X207603Y82165D01*
X207603Y83827D02*
X202353Y83827D01*
X202353Y85489D02*
X207603Y85489D01*
X202353Y70373D02*
X202353Y64503D01*
X202353Y70373D02*
X207603Y70373D01*
X207603Y64503D01*
X202353Y64503D01*
X202353Y66165D02*
X207603Y66165D01*
X207603Y67827D02*
X202353Y67827D01*
X202353Y69489D02*
X207603Y69489D01*
D12*
X81012Y52578D03*
X91012Y52578D03*
X101012Y52578D03*
X111012Y52578D03*
D13*
X124012Y15828D03*
X68012Y15828D03*
D12*
X156704Y52832D03*
X166704Y52832D03*
X176704Y52832D03*
X186704Y52832D03*
D13*
X199704Y16082D03*
X143704Y16082D03*
D10*
X146272Y114522D02*
X146272Y121190D01*
X152940Y121190D01*
X152940Y114522D01*
X146272Y114522D01*
X146272Y116634D02*
X152940Y116634D01*
X152940Y118746D02*
X146272Y118746D01*
X146272Y120858D02*
X152940Y120858D01*
X146272Y105950D02*
X146272Y99282D01*
X146272Y105950D02*
X152940Y105950D01*
X152940Y99282D01*
X146272Y99282D01*
X146272Y101394D02*
X152940Y101394D01*
X152940Y103506D02*
X146272Y103506D01*
X146272Y105618D02*
X152940Y105618D01*
X123984Y242284D02*
X123984Y248952D01*
X123984Y242284D02*
X117316Y242284D01*
X117316Y248952D01*
X123984Y248952D01*
X123984Y244396D02*
X117316Y244396D01*
X117316Y246508D02*
X123984Y246508D01*
X123984Y248620D02*
X117316Y248620D01*
X123984Y257524D02*
X123984Y264192D01*
X123984Y257524D02*
X117316Y257524D01*
X117316Y264192D01*
X123984Y264192D01*
X123984Y259636D02*
X117316Y259636D01*
X117316Y261748D02*
X123984Y261748D01*
X123984Y263860D02*
X117316Y263860D01*
X74200Y248952D02*
X74200Y242284D01*
X67532Y242284D01*
X67532Y248952D01*
X74200Y248952D01*
X74200Y244396D02*
X67532Y244396D01*
X67532Y246508D02*
X74200Y246508D01*
X74200Y248620D02*
X67532Y248620D01*
X74200Y257524D02*
X74200Y264192D01*
X74200Y257524D02*
X67532Y257524D01*
X67532Y264192D01*
X74200Y264192D01*
X74200Y259636D02*
X67532Y259636D01*
X67532Y261748D02*
X74200Y261748D01*
X74200Y263860D02*
X67532Y263860D01*
X37116Y86582D02*
X30448Y86582D01*
X30448Y93250D01*
X37116Y93250D01*
X37116Y86582D01*
X37116Y88694D02*
X30448Y88694D01*
X30448Y90806D02*
X37116Y90806D01*
X37116Y92918D02*
X30448Y92918D01*
X45688Y86582D02*
X52356Y86582D01*
X45688Y86582D02*
X45688Y93250D01*
X52356Y93250D01*
X52356Y86582D01*
X52356Y88694D02*
X45688Y88694D01*
X45688Y90806D02*
X52356Y90806D01*
X52356Y92918D02*
X45688Y92918D01*
X37116Y69056D02*
X30448Y69056D01*
X30448Y75724D01*
X37116Y75724D01*
X37116Y69056D01*
X37116Y71168D02*
X30448Y71168D01*
X30448Y73280D02*
X37116Y73280D01*
X37116Y75392D02*
X30448Y75392D01*
X45688Y69056D02*
X52356Y69056D01*
X45688Y69056D02*
X45688Y75724D01*
X52356Y75724D01*
X52356Y69056D01*
X52356Y71168D02*
X45688Y71168D01*
X45688Y73280D02*
X52356Y73280D01*
X52356Y75392D02*
X45688Y75392D01*
X225330Y70898D02*
X225330Y64230D01*
X218662Y64230D01*
X218662Y70898D01*
X225330Y70898D01*
X225330Y66342D02*
X218662Y66342D01*
X218662Y68454D02*
X225330Y68454D01*
X225330Y70566D02*
X218662Y70566D01*
X225330Y79470D02*
X225330Y86138D01*
X225330Y79470D02*
X218662Y79470D01*
X218662Y86138D01*
X225330Y86138D01*
X225330Y81582D02*
X218662Y81582D01*
X218662Y83694D02*
X225330Y83694D01*
X225330Y85806D02*
X218662Y85806D01*
X131032Y114522D02*
X131032Y121190D01*
X137700Y121190D01*
X137700Y114522D01*
X131032Y114522D01*
X131032Y116634D02*
X137700Y116634D01*
X137700Y118746D02*
X131032Y118746D01*
X131032Y120858D02*
X137700Y120858D01*
X131032Y105950D02*
X131032Y99282D01*
X131032Y105950D02*
X137700Y105950D01*
X137700Y99282D01*
X131032Y99282D01*
X131032Y101394D02*
X137700Y101394D01*
X137700Y103506D02*
X131032Y103506D01*
X131032Y105618D02*
X137700Y105618D01*
X116046Y114522D02*
X116046Y121190D01*
X122714Y121190D01*
X122714Y114522D01*
X116046Y114522D01*
X116046Y116634D02*
X122714Y116634D01*
X122714Y118746D02*
X116046Y118746D01*
X116046Y120858D02*
X122714Y120858D01*
X116046Y105950D02*
X116046Y99282D01*
X116046Y105950D02*
X122714Y105950D01*
X122714Y99282D01*
X116046Y99282D01*
X116046Y101394D02*
X122714Y101394D01*
X122714Y103506D02*
X116046Y103506D01*
X116046Y105618D02*
X122714Y105618D01*
D14*
X81058Y225384D03*
X81058Y218884D03*
X81058Y212384D03*
X81058Y205884D03*
X81058Y199384D03*
X81058Y192884D03*
X81058Y186384D03*
X81058Y179884D03*
X81058Y173384D03*
X81058Y166884D03*
X81058Y160384D03*
X81058Y153884D03*
X81058Y147384D03*
X81058Y140884D03*
X139414Y140884D03*
X139414Y147384D03*
X139414Y153884D03*
X139414Y160384D03*
X139414Y166884D03*
X139414Y173384D03*
X139414Y179884D03*
X139414Y186384D03*
X139414Y192884D03*
X139414Y199384D03*
X139414Y205884D03*
X139414Y212384D03*
X139414Y218884D03*
X139414Y225384D03*
D15*
X294680Y135740D03*
X294680Y146740D03*
X294680Y157740D03*
X294680Y168740D03*
X294680Y179740D03*
X294680Y190740D03*
X294680Y201740D03*
X294680Y231740D03*
X294680Y242740D03*
X294680Y253740D03*
X294680Y264740D03*
X294680Y275740D03*
X172680Y275740D03*
X172680Y264740D03*
X172680Y253740D03*
X172680Y242740D03*
X172680Y231740D03*
X172680Y201740D03*
X172680Y190740D03*
X172680Y179740D03*
X172680Y168740D03*
X172680Y157740D03*
X172680Y146740D03*
X172680Y135740D03*
D10*
X327184Y183102D02*
X327184Y189770D01*
X327184Y183102D02*
X320516Y183102D01*
X320516Y189770D01*
X327184Y189770D01*
X327184Y185214D02*
X320516Y185214D01*
X320516Y187326D02*
X327184Y187326D01*
X327184Y189438D02*
X320516Y189438D01*
X327184Y198342D02*
X327184Y205010D01*
X327184Y198342D02*
X320516Y198342D01*
X320516Y205010D01*
X327184Y205010D01*
X327184Y200454D02*
X320516Y200454D01*
X320516Y202566D02*
X327184Y202566D01*
X327184Y204678D02*
X320516Y204678D01*
D16*
X339376Y130460D02*
X344138Y130460D01*
X344138Y124048D01*
X339376Y124048D01*
X339376Y130460D01*
X339376Y125557D02*
X344138Y125557D01*
X344138Y127066D02*
X339376Y127066D01*
X339376Y128575D02*
X344138Y128575D01*
X344138Y130084D02*
X339376Y130084D01*
X330168Y130460D02*
X325406Y130460D01*
X330168Y130460D02*
X330168Y124048D01*
X325406Y124048D01*
X325406Y130460D01*
X325406Y125557D02*
X330168Y125557D01*
X330168Y127066D02*
X325406Y127066D01*
X325406Y128575D02*
X330168Y128575D01*
X330168Y130084D02*
X325406Y130084D01*
X339376Y145446D02*
X344138Y145446D01*
X344138Y139034D01*
X339376Y139034D01*
X339376Y145446D01*
X339376Y140543D02*
X344138Y140543D01*
X344138Y142052D02*
X339376Y142052D01*
X339376Y143561D02*
X344138Y143561D01*
X344138Y145070D02*
X339376Y145070D01*
X330168Y145446D02*
X325406Y145446D01*
X330168Y145446D02*
X330168Y139034D01*
X325406Y139034D01*
X325406Y145446D01*
X325406Y140543D02*
X330168Y140543D01*
X330168Y142052D02*
X325406Y142052D01*
X325406Y143561D02*
X330168Y143561D01*
X330168Y145070D02*
X325406Y145070D01*
D10*
X338296Y114840D02*
X344964Y114840D01*
X344964Y108172D01*
X338296Y108172D01*
X338296Y114840D01*
X338296Y110284D02*
X344964Y110284D01*
X344964Y112396D02*
X338296Y112396D01*
X338296Y114508D02*
X344964Y114508D01*
X329724Y114840D02*
X323056Y114840D01*
X329724Y114840D02*
X329724Y108172D01*
X323056Y108172D01*
X323056Y114840D01*
X323056Y110284D02*
X329724Y110284D01*
X329724Y112396D02*
X323056Y112396D01*
X323056Y114508D02*
X329724Y114508D01*
X338550Y161068D02*
X345218Y161068D01*
X345218Y154400D01*
X338550Y154400D01*
X338550Y161068D01*
X338550Y156512D02*
X345218Y156512D01*
X345218Y158624D02*
X338550Y158624D01*
X338550Y160736D02*
X345218Y160736D01*
X329978Y161068D02*
X323310Y161068D01*
X329978Y161068D02*
X329978Y154400D01*
X323310Y154400D01*
X323310Y161068D01*
X323310Y156512D02*
X329978Y156512D01*
X329978Y158624D02*
X323310Y158624D01*
X323310Y160736D02*
X329978Y160736D01*
X327184Y216376D02*
X327184Y223044D01*
X327184Y216376D02*
X320516Y216376D01*
X320516Y223044D01*
X327184Y223044D01*
X327184Y218488D02*
X320516Y218488D01*
X320516Y220600D02*
X327184Y220600D01*
X327184Y222712D02*
X320516Y222712D01*
X327184Y231616D02*
X327184Y238284D01*
X327184Y231616D02*
X320516Y231616D01*
X320516Y238284D01*
X327184Y238284D01*
X327184Y233728D02*
X320516Y233728D01*
X320516Y235840D02*
X327184Y235840D01*
X327184Y237952D02*
X320516Y237952D01*
X327184Y252698D02*
X327184Y259366D01*
X327184Y252698D02*
X320516Y252698D01*
X320516Y259366D01*
X327184Y259366D01*
X327184Y254810D02*
X320516Y254810D01*
X320516Y256922D02*
X327184Y256922D01*
X327184Y259034D02*
X320516Y259034D01*
X327184Y267938D02*
X327184Y274606D01*
X327184Y267938D02*
X320516Y267938D01*
X320516Y274606D01*
X327184Y274606D01*
X327184Y270050D02*
X320516Y270050D01*
X320516Y272162D02*
X327184Y272162D01*
X327184Y274274D02*
X320516Y274274D01*
D17*
X337600Y316230D03*
X310100Y316230D03*
D18*
X323850Y300980D03*
D19*
X260432Y105582D03*
X299432Y90582D03*
D20*
X131064Y304546D03*
X118564Y304546D03*
X106064Y304546D03*
X93564Y304546D03*
D21*
X156564Y334546D03*
X68064Y334546D03*
M02*
