G04 EAGLE Gerber RS-274X export*
G75*
%MOMM*%
%FSLAX34Y34*%
%LPD*%
%INSilkscreen Top*%
%IPPOS*%
%AMOC8*
5,1,8,0,0,1.08239X$1,22.5*%
G01*
%ADD10C,0.101600*%
%ADD11C,0.076200*%
%ADD12C,0.127000*%
%ADD13C,0.400000*%
%ADD14C,0.254000*%
%ADD15C,0.152400*%
%ADD16C,0.050800*%
%ADD17C,0.406400*%
%ADD18C,0.203200*%
%ADD19C,0.300000*%

G36*
X234176Y6811D02*
X234176Y6811D01*
X241052Y6811D01*
X242771Y6812D01*
X249648Y6812D01*
X251367Y6814D01*
X258245Y6814D01*
X259964Y6816D01*
X266840Y6816D01*
X268558Y6818D01*
X273715Y6818D01*
X273719Y6822D01*
X273725Y6824D01*
X273724Y6826D01*
X273727Y6828D01*
X273722Y6834D01*
X273719Y6841D01*
X272522Y7347D01*
X269303Y8701D01*
X267692Y9376D01*
X266081Y10052D01*
X264471Y10727D01*
X262860Y11402D01*
X261249Y12078D01*
X259639Y12753D01*
X257968Y13456D01*
X256295Y14158D01*
X254623Y14862D01*
X252953Y15566D01*
X251284Y16272D01*
X249614Y16981D01*
X247973Y17696D01*
X249385Y18538D01*
X250824Y19381D01*
X252263Y20225D01*
X252264Y20225D01*
X253705Y21064D01*
X255147Y21903D01*
X255148Y21903D01*
X256589Y22743D01*
X258030Y23580D01*
X259473Y24418D01*
X260916Y25254D01*
X262355Y26089D01*
X263796Y26925D01*
X265237Y27761D01*
X266676Y28597D01*
X268117Y29431D01*
X269557Y30266D01*
X272439Y31938D01*
X273878Y32772D01*
X273880Y32779D01*
X273884Y32782D01*
X273884Y51570D01*
X273874Y51581D01*
X273873Y51581D01*
X273872Y51582D01*
X272153Y51582D01*
X272153Y51581D01*
X270434Y51580D01*
X265277Y51580D01*
X263558Y51578D01*
X260119Y51578D01*
X258400Y51576D01*
X253243Y51576D01*
X251672Y51574D01*
X251643Y51574D01*
X251524Y51574D01*
X248126Y51574D01*
X246427Y51572D01*
X244728Y51572D01*
X243029Y51570D01*
X241329Y51569D01*
X239630Y51567D01*
X237931Y51563D01*
X237568Y51562D01*
X237553Y51562D01*
X236232Y51560D01*
X234533Y51552D01*
X234262Y51550D01*
X234257Y51550D01*
X232834Y51541D01*
X232581Y51539D01*
X232578Y51539D01*
X232578Y51538D01*
X231472Y51527D01*
X231469Y51527D01*
X231135Y51523D01*
X231134Y51523D01*
X229488Y51415D01*
X229484Y51411D01*
X229479Y51409D01*
X229480Y51406D01*
X229477Y51404D01*
X229482Y51399D01*
X229484Y51392D01*
X231088Y50710D01*
X232692Y50031D01*
X234298Y49355D01*
X235903Y48680D01*
X237509Y48003D01*
X239115Y47328D01*
X240720Y46654D01*
X242326Y45979D01*
X243897Y45320D01*
X245466Y44658D01*
X247035Y43996D01*
X248603Y43333D01*
X250170Y42667D01*
X251737Y41999D01*
X253301Y41328D01*
X254834Y40643D01*
X253458Y39806D01*
X252052Y38976D01*
X250642Y38147D01*
X249232Y37321D01*
X246408Y35675D01*
X244997Y34852D01*
X243583Y34031D01*
X242169Y33210D01*
X240734Y32376D01*
X239296Y31542D01*
X237861Y30708D01*
X236425Y29874D01*
X234988Y29040D01*
X233552Y28206D01*
X232116Y27370D01*
X230683Y26534D01*
X229249Y25695D01*
X229248Y25695D01*
X229012Y25541D01*
X229010Y25534D01*
X229007Y25531D01*
X229007Y6821D01*
X229017Y6809D01*
X229018Y6809D01*
X229019Y6809D01*
X232457Y6809D01*
X234176Y6811D01*
G37*
G36*
X217408Y293352D02*
X217408Y293352D01*
X217913Y293371D01*
X218417Y293405D01*
X218920Y293454D01*
X219421Y293524D01*
X219916Y293623D01*
X219917Y293624D01*
X220413Y293760D01*
X220413Y293761D01*
X220413Y293760D01*
X220901Y293921D01*
X220902Y293921D01*
X221382Y294105D01*
X221382Y294106D01*
X221382Y294105D01*
X221853Y294313D01*
X221853Y294314D01*
X222312Y294545D01*
X222313Y294545D01*
X222760Y294798D01*
X222760Y294799D01*
X222761Y294799D01*
X223194Y295074D01*
X223195Y295075D01*
X223615Y295372D01*
X224019Y295690D01*
X224407Y296028D01*
X224408Y296028D01*
X224778Y296385D01*
X225129Y296761D01*
X225130Y296761D01*
X225462Y297153D01*
X225462Y297154D01*
X225774Y297563D01*
X226064Y297987D01*
X226064Y297988D01*
X226065Y297988D01*
X226333Y298426D01*
X226333Y298427D01*
X226578Y298879D01*
X226578Y298880D01*
X226800Y299343D01*
X226800Y299344D01*
X226997Y299819D01*
X226998Y299819D01*
X227170Y300303D01*
X227170Y300304D01*
X227317Y300797D01*
X227317Y300798D01*
X227438Y301297D01*
X227533Y301803D01*
X227533Y301804D01*
X227593Y302302D01*
X227593Y302303D01*
X227594Y302303D01*
X227623Y302804D01*
X227630Y303306D01*
X227618Y303808D01*
X227588Y304309D01*
X227588Y304310D01*
X227541Y304809D01*
X227541Y304810D01*
X227475Y305307D01*
X227474Y305307D01*
X227474Y305308D01*
X227385Y305802D01*
X227384Y305802D01*
X227385Y305802D01*
X227264Y306289D01*
X227263Y306290D01*
X227103Y306786D01*
X227103Y306787D01*
X226917Y307274D01*
X226707Y307752D01*
X226473Y308218D01*
X226472Y308218D01*
X226215Y308671D01*
X226215Y308672D01*
X225934Y309111D01*
X225934Y309112D01*
X225631Y309536D01*
X225630Y309536D01*
X225305Y309943D01*
X225304Y309943D01*
X225304Y309944D01*
X224958Y310333D01*
X224957Y310333D01*
X224957Y310334D01*
X224589Y310702D01*
X224588Y310702D01*
X224588Y310703D01*
X224199Y311049D01*
X224199Y311050D01*
X223783Y311380D01*
X223351Y311687D01*
X223350Y311687D01*
X223350Y311688D01*
X222903Y311972D01*
X222902Y311972D01*
X222440Y312233D01*
X221965Y312470D01*
X221479Y312683D01*
X221478Y312683D01*
X220983Y312872D01*
X220982Y312872D01*
X220478Y313036D01*
X219966Y313176D01*
X219448Y313291D01*
X219447Y313291D01*
X218924Y313381D01*
X218397Y313446D01*
X217868Y313486D01*
X217458Y313498D01*
X217457Y313498D01*
X217337Y313501D01*
X217170Y313498D01*
X217168Y313498D01*
X216807Y313491D01*
X216807Y313490D01*
X216807Y313491D01*
X216278Y313455D01*
X216277Y313455D01*
X215750Y313395D01*
X215750Y313394D01*
X215749Y313395D01*
X215226Y313308D01*
X214829Y313223D01*
X214708Y313197D01*
X214707Y313196D01*
X214194Y313059D01*
X214194Y313058D01*
X214194Y313059D01*
X213689Y312896D01*
X213193Y312708D01*
X213192Y312708D01*
X212707Y312495D01*
X212706Y312495D01*
X212284Y312291D01*
X211868Y312074D01*
X211868Y312073D01*
X211867Y312073D01*
X211463Y311836D01*
X211074Y311573D01*
X211073Y311573D01*
X210702Y311287D01*
X210702Y311286D01*
X210701Y311286D01*
X210346Y310981D01*
X210345Y310981D01*
X210000Y310664D01*
X210000Y310663D01*
X209645Y310310D01*
X209644Y310310D01*
X209308Y309939D01*
X209307Y309939D01*
X208990Y309550D01*
X208693Y309146D01*
X208418Y308727D01*
X208417Y308727D01*
X208164Y308294D01*
X207933Y307849D01*
X207724Y307393D01*
X207539Y306927D01*
X207378Y306452D01*
X207240Y305970D01*
X207127Y305481D01*
X207038Y304988D01*
X207038Y304987D01*
X206974Y304491D01*
X206974Y304490D01*
X206934Y303991D01*
X206934Y303990D01*
X206933Y303990D01*
X206917Y303461D01*
X206925Y302932D01*
X206926Y302931D01*
X206925Y302931D01*
X206961Y302404D01*
X206961Y302403D01*
X207023Y301877D01*
X207111Y301355D01*
X207112Y301355D01*
X207111Y301355D01*
X207227Y300838D01*
X207369Y300328D01*
X207370Y300328D01*
X207369Y300328D01*
X207538Y299826D01*
X207539Y299826D01*
X207734Y299334D01*
X207735Y299334D01*
X207957Y298853D01*
X208204Y298385D01*
X208205Y298385D01*
X208478Y297932D01*
X208478Y297931D01*
X208776Y297493D01*
X209097Y297073D01*
X209098Y297073D01*
X209098Y297072D01*
X209441Y296670D01*
X209442Y296670D01*
X209442Y296669D01*
X209807Y296287D01*
X210193Y295925D01*
X210194Y295925D01*
X210194Y295924D01*
X210599Y295584D01*
X210600Y295584D01*
X211022Y295266D01*
X211023Y295266D01*
X211023Y295265D01*
X211463Y294971D01*
X211918Y294700D01*
X211918Y294699D01*
X212386Y294453D01*
X212865Y294227D01*
X212865Y294226D01*
X213352Y294021D01*
X213353Y294021D01*
X213850Y293842D01*
X213851Y293842D01*
X213851Y293841D01*
X214358Y293691D01*
X214359Y293692D01*
X214359Y293691D01*
X214829Y293577D01*
X214873Y293566D01*
X214873Y293567D01*
X214873Y293566D01*
X215392Y293460D01*
X215392Y293461D01*
X215392Y293460D01*
X215892Y293392D01*
X215893Y293393D01*
X215893Y293392D01*
X216397Y293359D01*
X216398Y293359D01*
X216903Y293347D01*
X216903Y293348D01*
X216903Y293347D01*
X217408Y293352D01*
G37*
G36*
X194328Y293642D02*
X194328Y293642D01*
X194327Y293642D01*
X194328Y293643D01*
X194328Y297378D01*
X194318Y297389D01*
X194317Y297389D01*
X194316Y297389D01*
X193844Y297392D01*
X193837Y297392D01*
X193830Y297392D01*
X192858Y297397D01*
X192371Y297399D01*
X191885Y297402D01*
X191565Y297403D01*
X191565Y297404D01*
X191560Y297404D01*
X191400Y297404D01*
X190914Y297407D01*
X190427Y297409D01*
X189941Y297412D01*
X189455Y297415D01*
X189295Y297415D01*
X189289Y297415D01*
X188969Y297417D01*
X188483Y297419D01*
X187997Y297422D01*
X187511Y297425D01*
X187025Y297427D01*
X186923Y297427D01*
X186917Y297427D01*
X186539Y297429D01*
X186052Y297432D01*
X185566Y297435D01*
X185080Y297437D01*
X184652Y297439D01*
X184646Y297439D01*
X184594Y297440D01*
X184108Y297442D01*
X183648Y297444D01*
X183965Y297814D01*
X184634Y298591D01*
X184968Y298980D01*
X185302Y299368D01*
X185636Y299757D01*
X185971Y300146D01*
X186304Y300535D01*
X186639Y300924D01*
X186973Y301313D01*
X187307Y301701D01*
X187641Y302090D01*
X187976Y302479D01*
X188309Y302868D01*
X188644Y303256D01*
X188978Y303645D01*
X189312Y304034D01*
X189646Y304422D01*
X189981Y304811D01*
X190315Y305200D01*
X190649Y305588D01*
X190983Y305977D01*
X191317Y306366D01*
X191652Y306755D01*
X191986Y307144D01*
X192320Y307532D01*
X192654Y307921D01*
X192988Y308310D01*
X193322Y308699D01*
X193657Y309087D01*
X193991Y309476D01*
X194325Y309865D01*
X194325Y309870D01*
X194328Y309872D01*
X194328Y313178D01*
X194318Y313190D01*
X194317Y313190D01*
X194316Y313190D01*
X178410Y313190D01*
X178398Y313180D01*
X178399Y313179D01*
X178398Y313178D01*
X178398Y309442D01*
X178409Y309430D01*
X178409Y309431D01*
X178410Y309430D01*
X184106Y309430D01*
X184623Y309429D01*
X185141Y309428D01*
X185659Y309426D01*
X186177Y309423D01*
X186695Y309420D01*
X187213Y309415D01*
X187731Y309409D01*
X188248Y309401D01*
X188741Y309379D01*
X188429Y309001D01*
X188098Y308608D01*
X187765Y308216D01*
X187432Y307824D01*
X187099Y307433D01*
X186765Y307042D01*
X186431Y306651D01*
X186096Y306260D01*
X185762Y305870D01*
X185428Y305479D01*
X185093Y305089D01*
X184759Y304698D01*
X184424Y304308D01*
X184089Y303918D01*
X183754Y303528D01*
X183418Y303138D01*
X182752Y302361D01*
X182751Y302361D01*
X182418Y301974D01*
X182084Y301586D01*
X181750Y301198D01*
X181417Y300809D01*
X181084Y300421D01*
X180750Y300033D01*
X180416Y299645D01*
X180082Y299257D01*
X179749Y298869D01*
X179416Y298481D01*
X179082Y298093D01*
X178748Y297705D01*
X178414Y297317D01*
X178081Y296929D01*
X178081Y296924D01*
X178078Y296921D01*
X178078Y293643D01*
X178089Y293631D01*
X178089Y293632D01*
X178090Y293631D01*
X194316Y293631D01*
X194328Y293642D01*
G37*
G36*
X249135Y293336D02*
X249135Y293336D01*
X249619Y293362D01*
X249620Y293362D01*
X250102Y293405D01*
X250103Y293405D01*
X250584Y293467D01*
X251066Y293550D01*
X251066Y293551D01*
X251067Y293550D01*
X251543Y293658D01*
X251544Y293658D01*
X252015Y293788D01*
X252015Y293789D01*
X252016Y293789D01*
X252480Y293944D01*
X252935Y294124D01*
X252935Y294125D01*
X253379Y294330D01*
X253380Y294330D01*
X253812Y294559D01*
X254232Y294810D01*
X254232Y294811D01*
X254638Y295084D01*
X255030Y295377D01*
X255030Y295378D01*
X255407Y295689D01*
X255408Y295689D01*
X255770Y296017D01*
X256041Y296273D01*
X256312Y296528D01*
X256583Y296784D01*
X256584Y296799D01*
X256583Y296800D01*
X256583Y296801D01*
X256250Y297147D01*
X255916Y297495D01*
X255583Y297841D01*
X255249Y298189D01*
X254915Y298535D01*
X254582Y298882D01*
X254248Y299229D01*
X253915Y299576D01*
X253899Y299577D01*
X253593Y299338D01*
X253183Y299021D01*
X252765Y298714D01*
X252339Y298421D01*
X251900Y298145D01*
X251447Y297895D01*
X250977Y297679D01*
X250489Y297507D01*
X249986Y297388D01*
X249473Y297322D01*
X249260Y297314D01*
X248956Y297303D01*
X248634Y297314D01*
X248439Y297321D01*
X247910Y297377D01*
X247387Y297478D01*
X246876Y297626D01*
X246383Y297824D01*
X245912Y298071D01*
X245469Y298365D01*
X245059Y298705D01*
X244686Y299084D01*
X244353Y299499D01*
X244060Y299943D01*
X243807Y300412D01*
X243590Y300889D01*
X243407Y301379D01*
X243267Y301884D01*
X243175Y302399D01*
X243126Y302921D01*
X243112Y303444D01*
X243128Y303956D01*
X243178Y304465D01*
X243266Y304969D01*
X243392Y305465D01*
X243561Y305948D01*
X243771Y306414D01*
X244022Y306860D01*
X244312Y307282D01*
X244636Y307677D01*
X244993Y308045D01*
X245380Y308380D01*
X245796Y308678D01*
X246240Y308935D01*
X246705Y309148D01*
X247189Y309314D01*
X247688Y309432D01*
X248195Y309501D01*
X248706Y309523D01*
X249218Y309498D01*
X249725Y309429D01*
X250226Y309318D01*
X250715Y309169D01*
X251193Y308984D01*
X251657Y308766D01*
X252105Y308518D01*
X252538Y308242D01*
X252953Y307942D01*
X253319Y307661D01*
X253686Y307380D01*
X253691Y307380D01*
X253693Y307378D01*
X253697Y307381D01*
X253701Y307381D01*
X253702Y307381D01*
X253957Y307637D01*
X254305Y308015D01*
X254647Y308399D01*
X254986Y308784D01*
X255324Y309171D01*
X255601Y309490D01*
X255879Y309810D01*
X256156Y310129D01*
X256434Y310448D01*
X256434Y310455D01*
X256435Y310456D01*
X256434Y310458D01*
X256434Y310464D01*
X256433Y310464D01*
X256150Y310767D01*
X256149Y310767D01*
X256149Y310768D01*
X255790Y311116D01*
X255789Y311116D01*
X255402Y311434D01*
X255401Y311434D01*
X254993Y311725D01*
X254992Y311725D01*
X254569Y311992D01*
X254568Y311992D01*
X254132Y312238D01*
X253684Y312462D01*
X253683Y312462D01*
X253226Y312666D01*
X253225Y312666D01*
X252759Y312850D01*
X252285Y313013D01*
X251804Y313153D01*
X251804Y313152D01*
X251804Y313153D01*
X251333Y313270D01*
X251332Y313270D01*
X250856Y313360D01*
X250855Y313360D01*
X250373Y313410D01*
X250202Y313418D01*
X249944Y313430D01*
X249888Y313433D01*
X249888Y313432D01*
X249888Y313433D01*
X249403Y313442D01*
X249360Y313442D01*
X249356Y313442D01*
X248919Y313445D01*
X248393Y313443D01*
X248392Y313443D01*
X248364Y313442D01*
X248363Y313442D01*
X247912Y313430D01*
X247911Y313430D01*
X247867Y313429D01*
X247342Y313397D01*
X247342Y313396D01*
X247342Y313397D01*
X246819Y313341D01*
X246819Y313340D01*
X246818Y313341D01*
X246300Y313252D01*
X245789Y313127D01*
X245788Y313127D01*
X245288Y312965D01*
X244798Y312773D01*
X244318Y312558D01*
X243902Y312357D01*
X243902Y312356D01*
X243495Y312140D01*
X243495Y312139D01*
X243494Y312139D01*
X243098Y311902D01*
X243098Y311901D01*
X242718Y311640D01*
X242717Y311640D01*
X242353Y311356D01*
X242353Y311355D01*
X242004Y311053D01*
X242004Y311052D01*
X242004Y311053D01*
X241666Y310738D01*
X241316Y310387D01*
X241316Y310386D01*
X240983Y310018D01*
X240983Y310017D01*
X240670Y309632D01*
X240376Y309233D01*
X240376Y309232D01*
X240375Y309232D01*
X240102Y308819D01*
X240102Y308818D01*
X240101Y308818D01*
X239849Y308391D01*
X239848Y308391D01*
X239616Y307952D01*
X239406Y307503D01*
X239407Y307502D01*
X239406Y307502D01*
X239219Y307043D01*
X239219Y307042D01*
X239054Y306574D01*
X239055Y306574D01*
X239054Y306574D01*
X238914Y306098D01*
X238798Y305615D01*
X238706Y305127D01*
X238648Y304622D01*
X238648Y304621D01*
X238621Y304114D01*
X238614Y303606D01*
X238623Y303098D01*
X238646Y302590D01*
X238683Y302083D01*
X238737Y301578D01*
X238812Y301075D01*
X238813Y301075D01*
X238812Y301075D01*
X238923Y300579D01*
X238923Y300578D01*
X239069Y300121D01*
X239070Y300121D01*
X239069Y300121D01*
X239240Y299672D01*
X239428Y299231D01*
X239428Y299230D01*
X239633Y298796D01*
X239853Y298369D01*
X240088Y297950D01*
X240341Y297542D01*
X240342Y297542D01*
X240341Y297541D01*
X240617Y297149D01*
X240618Y297149D01*
X240618Y297148D01*
X240944Y296744D01*
X240945Y296744D01*
X241294Y296360D01*
X241295Y296360D01*
X241666Y295997D01*
X241667Y295997D01*
X242057Y295654D01*
X242058Y295654D01*
X242466Y295333D01*
X242467Y295333D01*
X242891Y295034D01*
X243330Y294756D01*
X243331Y294757D01*
X243331Y294756D01*
X243783Y294502D01*
X243784Y294502D01*
X243784Y294501D01*
X244248Y294269D01*
X244249Y294270D01*
X244249Y294269D01*
X244725Y294061D01*
X244725Y294060D01*
X245210Y293876D01*
X245211Y293876D01*
X245705Y293717D01*
X245706Y293717D01*
X246208Y293584D01*
X246716Y293477D01*
X246717Y293478D01*
X246717Y293477D01*
X247197Y293406D01*
X247197Y293407D01*
X247197Y293406D01*
X247680Y293360D01*
X247680Y293361D01*
X247680Y293360D01*
X248164Y293335D01*
X248165Y293335D01*
X248650Y293327D01*
X249135Y293336D01*
G37*
G36*
X269315Y293321D02*
X269315Y293321D01*
X269315Y293322D01*
X269315Y293321D01*
X269817Y293341D01*
X270317Y293376D01*
X270318Y293376D01*
X270816Y293428D01*
X270817Y293428D01*
X271314Y293495D01*
X271808Y293580D01*
X271809Y293580D01*
X272299Y293687D01*
X272300Y293688D01*
X272300Y293687D01*
X272809Y293842D01*
X272810Y293843D01*
X273306Y294039D01*
X273306Y294040D01*
X273307Y294039D01*
X273789Y294265D01*
X273790Y294265D01*
X274260Y294514D01*
X274260Y294515D01*
X274261Y294515D01*
X274720Y294784D01*
X274721Y294785D01*
X275169Y295073D01*
X275605Y295380D01*
X275606Y295380D01*
X276027Y295706D01*
X276432Y296054D01*
X276813Y296426D01*
X276813Y296427D01*
X277159Y296791D01*
X277159Y296806D01*
X277158Y296806D01*
X277158Y296807D01*
X276815Y297150D01*
X276472Y297492D01*
X276129Y297834D01*
X275786Y298176D01*
X275443Y298518D01*
X275101Y298861D01*
X274758Y299203D01*
X274415Y299545D01*
X274399Y299546D01*
X274031Y299246D01*
X273664Y298946D01*
X273263Y298635D01*
X272845Y298349D01*
X272409Y298091D01*
X271957Y297863D01*
X271488Y297669D01*
X271006Y297514D01*
X270513Y297400D01*
X270011Y297329D01*
X269506Y297300D01*
X269290Y297306D01*
X269000Y297314D01*
X268496Y297367D01*
X267975Y297470D01*
X267466Y297623D01*
X266974Y297826D01*
X266506Y298077D01*
X266065Y298373D01*
X265654Y298711D01*
X265278Y299087D01*
X264938Y299495D01*
X264636Y299933D01*
X264373Y300396D01*
X264150Y300878D01*
X263967Y301378D01*
X263844Y301839D01*
X263759Y302308D01*
X263704Y302783D01*
X263676Y303260D01*
X263675Y303738D01*
X263702Y304214D01*
X263760Y304689D01*
X263857Y305156D01*
X264005Y305637D01*
X264190Y306106D01*
X264412Y306557D01*
X264672Y306989D01*
X264967Y307397D01*
X265296Y307777D01*
X265658Y308128D01*
X266049Y308444D01*
X266468Y308724D01*
X266910Y308965D01*
X267372Y309163D01*
X267852Y309319D01*
X268342Y309431D01*
X268841Y309498D01*
X269344Y309521D01*
X269847Y309500D01*
X270359Y309434D01*
X270863Y309324D01*
X271356Y309169D01*
X271833Y308972D01*
X272295Y308740D01*
X272740Y308480D01*
X273172Y308195D01*
X273591Y307892D01*
X273934Y307640D01*
X273934Y307639D01*
X274289Y307404D01*
X274295Y307405D01*
X274298Y307405D01*
X274299Y307405D01*
X274301Y307406D01*
X274304Y307406D01*
X274659Y307767D01*
X274660Y307768D01*
X274998Y308147D01*
X274998Y308148D01*
X275333Y308531D01*
X275665Y308916D01*
X275995Y309303D01*
X276322Y309692D01*
X276322Y309693D01*
X276645Y310085D01*
X276646Y310085D01*
X276950Y310491D01*
X276950Y310494D01*
X276951Y310495D01*
X276949Y310497D01*
X276949Y310504D01*
X276949Y310506D01*
X276668Y310829D01*
X276667Y310829D01*
X276667Y310830D01*
X276343Y311115D01*
X276342Y311115D01*
X276008Y311387D01*
X276008Y311388D01*
X275665Y311650D01*
X275664Y311650D01*
X275312Y311899D01*
X275312Y311900D01*
X274864Y312178D01*
X274863Y312178D01*
X274397Y312423D01*
X273916Y312638D01*
X273915Y312639D01*
X273423Y312827D01*
X273422Y312827D01*
X272921Y312989D01*
X272412Y313128D01*
X272412Y313127D01*
X272412Y313128D01*
X271898Y313243D01*
X271897Y313243D01*
X271379Y313337D01*
X270856Y313409D01*
X270332Y313460D01*
X270331Y313459D01*
X270331Y313460D01*
X269805Y313490D01*
X269627Y313493D01*
X269625Y313493D01*
X269278Y313499D01*
X269278Y313498D01*
X269278Y313499D01*
X269055Y313493D01*
X269054Y313493D01*
X268751Y313485D01*
X268750Y313485D01*
X268225Y313450D01*
X268224Y313450D01*
X267700Y313391D01*
X267180Y313308D01*
X267180Y313307D01*
X267179Y313307D01*
X266665Y313198D01*
X266664Y313197D01*
X266155Y313059D01*
X266154Y313059D01*
X265665Y312896D01*
X265184Y312708D01*
X265184Y312707D01*
X265183Y312708D01*
X264714Y312494D01*
X264714Y312493D01*
X264256Y312256D01*
X264256Y312255D01*
X264255Y312255D01*
X263811Y311993D01*
X263811Y311992D01*
X263810Y311992D01*
X263381Y311707D01*
X263381Y311706D01*
X262967Y311397D01*
X262570Y311067D01*
X262570Y311066D01*
X262192Y310716D01*
X262192Y310715D01*
X262191Y310716D01*
X261832Y310345D01*
X261831Y310345D01*
X261492Y309957D01*
X261492Y309956D01*
X261173Y309550D01*
X261172Y309550D01*
X260875Y309128D01*
X260599Y308692D01*
X260599Y308691D01*
X260345Y308242D01*
X260346Y308241D01*
X260345Y308241D01*
X260114Y307780D01*
X259905Y307308D01*
X259906Y307307D01*
X259905Y307307D01*
X259720Y306826D01*
X259720Y306825D01*
X259558Y306335D01*
X259419Y305838D01*
X259419Y305837D01*
X259302Y305335D01*
X259303Y305334D01*
X259302Y305334D01*
X259229Y304853D01*
X259229Y304852D01*
X259189Y304368D01*
X259170Y303882D01*
X259171Y303881D01*
X259170Y303881D01*
X259168Y303395D01*
X259180Y302909D01*
X259180Y302908D01*
X259206Y302423D01*
X259206Y302422D01*
X259249Y301938D01*
X259311Y301455D01*
X259312Y301455D01*
X259311Y301455D01*
X259404Y300977D01*
X259405Y300977D01*
X259404Y300976D01*
X259540Y300471D01*
X259541Y300471D01*
X259541Y300470D01*
X259701Y299972D01*
X259702Y299972D01*
X259701Y299972D01*
X259886Y299481D01*
X260096Y299001D01*
X260330Y298532D01*
X260330Y298531D01*
X260588Y298076D01*
X260588Y298075D01*
X260869Y297634D01*
X260869Y297633D01*
X261173Y297207D01*
X261174Y297207D01*
X261174Y297206D01*
X261501Y296797D01*
X261849Y296406D01*
X261850Y296406D01*
X261850Y296405D01*
X262219Y296034D01*
X262607Y295682D01*
X262608Y295682D01*
X263015Y295353D01*
X263015Y295352D01*
X263439Y295045D01*
X263440Y295045D01*
X263880Y294761D01*
X264335Y294501D01*
X264336Y294501D01*
X264804Y294266D01*
X265284Y294056D01*
X265285Y294056D01*
X265775Y293871D01*
X266274Y293712D01*
X266275Y293712D01*
X266781Y293578D01*
X267293Y293469D01*
X267294Y293470D01*
X267294Y293469D01*
X267811Y293387D01*
X267812Y293387D01*
X267812Y293386D01*
X268311Y293338D01*
X268312Y293338D01*
X268813Y293319D01*
X269315Y293321D01*
G37*
%LPC*%
G36*
X217257Y297299D02*
X217257Y297299D01*
X216981Y297311D01*
X216751Y297321D01*
X216238Y297389D01*
X215733Y297503D01*
X215241Y297662D01*
X214836Y297836D01*
X214765Y297866D01*
X214309Y298113D01*
X213879Y298399D01*
X213475Y298724D01*
X213102Y299083D01*
X212763Y299474D01*
X212459Y299893D01*
X212192Y300337D01*
X211965Y300802D01*
X211778Y301285D01*
X211630Y301782D01*
X211524Y302288D01*
X211458Y302802D01*
X211432Y303319D01*
X211444Y303836D01*
X211494Y304355D01*
X211584Y304869D01*
X211715Y305373D01*
X211887Y305865D01*
X212099Y306341D01*
X212352Y306796D01*
X212644Y307228D01*
X212973Y307631D01*
X213338Y308003D01*
X213735Y308340D01*
X214161Y308639D01*
X214613Y308897D01*
X214837Y308997D01*
X215088Y309111D01*
X215581Y309281D01*
X216087Y309405D01*
X216602Y309482D01*
X217122Y309514D01*
X217643Y309501D01*
X218146Y309447D01*
X218643Y309351D01*
X219130Y309214D01*
X219603Y309035D01*
X220058Y308814D01*
X220491Y308554D01*
X220900Y308254D01*
X221279Y307920D01*
X221627Y307554D01*
X221942Y307157D01*
X222221Y306735D01*
X222463Y306291D01*
X222667Y305828D01*
X222834Y305349D01*
X222962Y304860D01*
X223052Y304362D01*
X223107Y303859D01*
X223125Y303353D01*
X223110Y302840D01*
X223057Y302329D01*
X222959Y301826D01*
X222815Y301333D01*
X222630Y300854D01*
X222412Y300389D01*
X222154Y299926D01*
X221852Y299491D01*
X221511Y299086D01*
X221131Y298716D01*
X220717Y298385D01*
X220273Y298096D01*
X219804Y297850D01*
X219313Y297650D01*
X218806Y297496D01*
X218299Y297388D01*
X217786Y297321D01*
X217550Y297311D01*
X217280Y297299D01*
X217269Y297298D01*
X217257Y297299D01*
G37*
%LPD*%
G36*
X202868Y293642D02*
X202868Y293642D01*
X202867Y293642D01*
X202868Y293643D01*
X202868Y313178D01*
X202857Y313190D01*
X202856Y313190D01*
X198586Y313190D01*
X198574Y313180D01*
X198575Y313179D01*
X198574Y313178D01*
X198574Y293643D01*
X198584Y293631D01*
X198585Y293632D01*
X198586Y293631D01*
X202856Y293631D01*
X202868Y293642D01*
G37*
G36*
X235320Y293642D02*
X235320Y293642D01*
X235319Y293642D01*
X235320Y293643D01*
X235320Y298126D01*
X235309Y298138D01*
X235308Y298138D01*
X230824Y298138D01*
X230812Y298128D01*
X230813Y298127D01*
X230812Y298126D01*
X230812Y293643D01*
X230823Y293631D01*
X230823Y293632D01*
X230824Y293631D01*
X235308Y293631D01*
X235320Y293642D01*
G37*
D10*
X78486Y65533D02*
X78486Y71635D01*
X80011Y73160D01*
X83062Y73160D01*
X84587Y71635D01*
X84587Y65533D01*
X83062Y64008D01*
X80011Y64008D01*
X78486Y65533D01*
X81537Y67059D02*
X84587Y64008D01*
X87841Y65533D02*
X87841Y70109D01*
X87841Y65533D02*
X89366Y64008D01*
X90892Y65533D01*
X92417Y64008D01*
X93942Y65533D01*
X93942Y70109D01*
X97196Y70109D02*
X98722Y70109D01*
X98722Y64008D01*
X100247Y64008D02*
X97196Y64008D01*
X98722Y73160D02*
X98722Y74685D01*
X103433Y70109D02*
X104958Y70109D01*
X104958Y64008D01*
X103433Y64008D02*
X106484Y64008D01*
X104958Y73160D02*
X104958Y74685D01*
X111195Y70109D02*
X115771Y70109D01*
X111195Y70109D02*
X109670Y68584D01*
X109670Y65533D01*
X111195Y64008D01*
X115771Y64008D01*
X154178Y65533D02*
X154178Y71635D01*
X155703Y73160D01*
X158754Y73160D01*
X160279Y71635D01*
X160279Y65533D01*
X158754Y64008D01*
X155703Y64008D01*
X154178Y65533D01*
X157229Y67059D02*
X160279Y64008D01*
X163533Y65533D02*
X163533Y70109D01*
X163533Y65533D02*
X165058Y64008D01*
X166584Y65533D01*
X168109Y64008D01*
X169634Y65533D01*
X169634Y70109D01*
X172888Y70109D02*
X174414Y70109D01*
X174414Y64008D01*
X175939Y64008D02*
X172888Y64008D01*
X174414Y73160D02*
X174414Y74685D01*
X179125Y70109D02*
X180650Y70109D01*
X180650Y64008D01*
X179125Y64008D02*
X182176Y64008D01*
X180650Y73160D02*
X180650Y74685D01*
X186887Y70109D02*
X191463Y70109D01*
X186887Y70109D02*
X185362Y68584D01*
X185362Y65533D01*
X186887Y64008D01*
X191463Y64008D01*
X32258Y59949D02*
X32258Y53848D01*
X32258Y59949D02*
X35309Y63000D01*
X38359Y59949D01*
X38359Y53848D01*
X38359Y58424D02*
X32258Y58424D01*
X41613Y59949D02*
X44664Y63000D01*
X44664Y53848D01*
X47714Y53848D02*
X41613Y53848D01*
X32258Y99568D02*
X32258Y105669D01*
X35309Y108720D01*
X38359Y105669D01*
X38359Y99568D01*
X38359Y104144D02*
X32258Y104144D01*
X41613Y101093D02*
X41613Y107195D01*
X43138Y108720D01*
X46189Y108720D01*
X47714Y107195D01*
X47714Y101093D01*
X46189Y99568D01*
X43138Y99568D01*
X41613Y101093D01*
X47714Y107195D01*
D11*
X127381Y291802D02*
X134753Y291802D01*
X134753Y294259D02*
X134753Y289344D01*
X134753Y286775D02*
X127381Y281860D01*
X127381Y286775D02*
X134753Y281860D01*
X134753Y279291D02*
X127381Y279291D01*
X127381Y275605D01*
X128610Y274376D01*
X133525Y274376D01*
X134753Y275605D01*
X134753Y279291D01*
X122053Y294259D02*
X114681Y294259D01*
X122053Y294259D02*
X122053Y290573D01*
X120825Y289344D01*
X118367Y289344D01*
X117138Y290573D01*
X117138Y294259D01*
X117138Y291802D02*
X114681Y289344D01*
X114681Y281860D02*
X122053Y286775D01*
X122053Y281860D02*
X114681Y286775D01*
X114681Y279291D02*
X122053Y279291D01*
X114681Y279291D02*
X114681Y275605D01*
X115910Y274376D01*
X120825Y274376D01*
X122053Y275605D01*
X122053Y279291D01*
X109353Y293030D02*
X108125Y294259D01*
X109353Y293030D02*
X109353Y290573D01*
X108125Y289344D01*
X106896Y289344D01*
X105667Y290573D01*
X105667Y291802D01*
X105667Y290573D02*
X104438Y289344D01*
X103210Y289344D01*
X101981Y290573D01*
X101981Y293030D01*
X103210Y294259D01*
X104438Y286775D02*
X109353Y286775D01*
X104438Y286775D02*
X101981Y284317D01*
X104438Y281860D01*
X109353Y281860D01*
X108125Y279291D02*
X109353Y278062D01*
X109353Y275605D01*
X108125Y274376D01*
X106896Y274376D01*
X105667Y275605D01*
X105667Y276833D01*
X105667Y275605D02*
X104438Y274376D01*
X103210Y274376D01*
X101981Y275605D01*
X101981Y278062D01*
X103210Y279291D01*
X95425Y289344D02*
X96653Y290573D01*
X96653Y293030D01*
X95425Y294259D01*
X90510Y294259D01*
X89281Y293030D01*
X89281Y290573D01*
X90510Y289344D01*
X92967Y289344D01*
X92967Y291802D01*
X89281Y286775D02*
X96653Y286775D01*
X89281Y281860D01*
X96653Y281860D01*
X96653Y279291D02*
X89281Y279291D01*
X89281Y275605D01*
X90510Y274376D01*
X95425Y274376D01*
X96653Y275605D01*
X96653Y279291D01*
D10*
X178308Y346210D02*
X184409Y346210D01*
X184409Y344685D01*
X178308Y338583D01*
X178308Y337058D01*
X184409Y337058D01*
X187663Y343159D02*
X189188Y343159D01*
X189188Y337058D01*
X187663Y337058D02*
X190714Y337058D01*
X189188Y346210D02*
X189188Y347735D01*
X195425Y337058D02*
X198476Y337058D01*
X200001Y338583D01*
X200001Y341634D01*
X198476Y343159D01*
X195425Y343159D01*
X193900Y341634D01*
X193900Y338583D01*
X195425Y337058D01*
X212610Y338583D02*
X212610Y344685D01*
X214136Y346210D01*
X217186Y346210D01*
X218712Y344685D01*
X218712Y338583D01*
X217186Y337058D01*
X214136Y337058D01*
X212610Y338583D01*
X215661Y340109D02*
X218712Y337058D01*
X221966Y338583D02*
X221966Y343159D01*
X221966Y338583D02*
X223491Y337058D01*
X225016Y338583D01*
X226541Y337058D01*
X228067Y338583D01*
X228067Y343159D01*
X231321Y343159D02*
X232846Y343159D01*
X232846Y337058D01*
X231321Y337058D02*
X234371Y337058D01*
X232846Y346210D02*
X232846Y347735D01*
X237558Y343159D02*
X239083Y343159D01*
X239083Y337058D01*
X237558Y337058D02*
X240608Y337058D01*
X239083Y346210D02*
X239083Y347735D01*
X245320Y343159D02*
X249895Y343159D01*
X245320Y343159D02*
X243794Y341634D01*
X243794Y338583D01*
X245320Y337058D01*
X249895Y337058D01*
X267081Y346210D02*
X268606Y344685D01*
X267081Y346210D02*
X264030Y346210D01*
X262505Y344685D01*
X262505Y338583D01*
X264030Y337058D01*
X267081Y337058D01*
X268606Y338583D01*
X268606Y341634D01*
X265555Y341634D01*
X271860Y337058D02*
X271860Y346210D01*
X276436Y346210D01*
X277961Y344685D01*
X277961Y341634D01*
X276436Y340109D01*
X271860Y340109D01*
X285791Y346210D02*
X287316Y344685D01*
X285791Y346210D02*
X282740Y346210D01*
X281215Y344685D01*
X281215Y343159D01*
X282740Y341634D01*
X285791Y341634D01*
X287316Y340109D01*
X287316Y338583D01*
X285791Y337058D01*
X282740Y337058D01*
X281215Y338583D01*
X299925Y337058D02*
X299925Y346210D01*
X302976Y343159D01*
X306027Y346210D01*
X306027Y337058D01*
X310806Y337058D02*
X313857Y337058D01*
X315382Y338583D01*
X315382Y341634D01*
X313857Y343159D01*
X310806Y343159D01*
X309281Y341634D01*
X309281Y338583D01*
X310806Y337058D01*
X324737Y337058D02*
X324737Y346210D01*
X324737Y337058D02*
X320161Y337058D01*
X318636Y338583D01*
X318636Y341634D01*
X320161Y343159D01*
X324737Y343159D01*
X327991Y343159D02*
X327991Y338583D01*
X329516Y337058D01*
X334092Y337058D01*
X334092Y343159D01*
X337346Y346210D02*
X338871Y346210D01*
X338871Y337058D01*
X337346Y337058D02*
X340397Y337058D01*
X345108Y337058D02*
X348159Y337058D01*
X345108Y337058D02*
X343583Y338583D01*
X343583Y341634D01*
X345108Y343159D01*
X348159Y343159D01*
X349684Y341634D01*
X349684Y340109D01*
X343583Y340109D01*
X178308Y330970D02*
X178308Y321818D01*
X184409Y321818D02*
X178308Y330970D01*
X184409Y330970D02*
X184409Y321818D01*
X187663Y330970D02*
X193764Y330970D01*
X187663Y330970D02*
X187663Y321818D01*
X193764Y321818D01*
X190714Y326394D02*
X187663Y326394D01*
X198544Y330970D02*
X201594Y330970D01*
X198544Y330970D02*
X197018Y329445D01*
X197018Y323343D01*
X198544Y321818D01*
X201594Y321818D01*
X203120Y323343D01*
X203120Y329445D01*
X201594Y330970D01*
X206374Y326394D02*
X212475Y326394D01*
X215729Y321818D02*
X215729Y330970D01*
X218779Y327919D01*
X221830Y330970D01*
X221830Y321818D01*
X225084Y329445D02*
X226609Y330970D01*
X229660Y330970D01*
X231185Y329445D01*
X231185Y327919D01*
X229660Y326394D01*
X231185Y324869D01*
X231185Y323343D01*
X229660Y321818D01*
X226609Y321818D01*
X225084Y323343D01*
X225084Y324869D01*
X226609Y326394D01*
X225084Y327919D01*
X225084Y329445D01*
X226609Y326394D02*
X229660Y326394D01*
X234439Y321818D02*
X234439Y330970D01*
X240540Y321818D01*
X240540Y330970D01*
D12*
X41148Y261112D02*
X13208Y261112D01*
X41148Y261112D02*
X41148Y248412D01*
X13208Y248412D01*
X13208Y261112D01*
X13208Y126746D02*
X41148Y126746D01*
X41148Y114046D01*
X13208Y114046D01*
X13208Y126746D01*
X215646Y92710D02*
X243586Y92710D01*
X215646Y92710D02*
X215646Y105410D01*
X243586Y105410D01*
X243586Y92710D01*
X243586Y107696D02*
X215646Y107696D01*
X215646Y120396D01*
X243586Y120396D01*
X243586Y107696D01*
X211328Y105156D02*
X183388Y105156D01*
X211328Y105156D02*
X211328Y92456D01*
X183388Y92456D01*
X183388Y105156D01*
X183388Y119888D02*
X211328Y119888D01*
X211328Y107188D01*
X183388Y107188D01*
X183388Y119888D01*
X110998Y239268D02*
X110998Y267208D01*
X110998Y239268D02*
X98298Y239268D01*
X98298Y267208D01*
X110998Y267208D01*
X208978Y81438D02*
X208978Y69438D01*
X200978Y69438D01*
X200978Y81438D01*
X208978Y81438D01*
X207518Y76708D02*
X202438Y76708D01*
X204978Y74168D02*
X207518Y76708D01*
X204978Y74168D02*
X202438Y76708D01*
D13*
X69598Y55578D02*
X69600Y55653D01*
X69606Y55727D01*
X69616Y55801D01*
X69629Y55874D01*
X69647Y55947D01*
X69668Y56018D01*
X69693Y56089D01*
X69722Y56158D01*
X69755Y56225D01*
X69791Y56290D01*
X69830Y56354D01*
X69872Y56415D01*
X69918Y56474D01*
X69967Y56531D01*
X70019Y56584D01*
X70073Y56635D01*
X70130Y56684D01*
X70190Y56728D01*
X70252Y56770D01*
X70316Y56809D01*
X70382Y56844D01*
X70449Y56875D01*
X70519Y56903D01*
X70589Y56927D01*
X70661Y56948D01*
X70734Y56964D01*
X70807Y56977D01*
X70882Y56986D01*
X70956Y56991D01*
X71031Y56992D01*
X71105Y56989D01*
X71180Y56982D01*
X71253Y56971D01*
X71327Y56957D01*
X71399Y56938D01*
X71470Y56916D01*
X71540Y56890D01*
X71609Y56860D01*
X71675Y56827D01*
X71740Y56790D01*
X71803Y56750D01*
X71864Y56706D01*
X71922Y56660D01*
X71978Y56610D01*
X72031Y56558D01*
X72082Y56503D01*
X72129Y56445D01*
X72173Y56385D01*
X72214Y56322D01*
X72252Y56258D01*
X72286Y56192D01*
X72317Y56123D01*
X72344Y56054D01*
X72367Y55983D01*
X72386Y55911D01*
X72402Y55838D01*
X72414Y55764D01*
X72422Y55690D01*
X72426Y55615D01*
X72426Y55541D01*
X72422Y55466D01*
X72414Y55392D01*
X72402Y55318D01*
X72386Y55245D01*
X72367Y55173D01*
X72344Y55102D01*
X72317Y55033D01*
X72286Y54964D01*
X72252Y54898D01*
X72214Y54834D01*
X72173Y54771D01*
X72129Y54711D01*
X72082Y54653D01*
X72031Y54598D01*
X71978Y54546D01*
X71922Y54496D01*
X71864Y54450D01*
X71803Y54406D01*
X71740Y54366D01*
X71675Y54329D01*
X71609Y54296D01*
X71540Y54266D01*
X71470Y54240D01*
X71399Y54218D01*
X71327Y54199D01*
X71253Y54185D01*
X71180Y54174D01*
X71105Y54167D01*
X71031Y54164D01*
X70956Y54165D01*
X70882Y54170D01*
X70807Y54179D01*
X70734Y54192D01*
X70661Y54208D01*
X70589Y54229D01*
X70519Y54253D01*
X70449Y54281D01*
X70382Y54312D01*
X70316Y54347D01*
X70252Y54386D01*
X70190Y54428D01*
X70130Y54472D01*
X70073Y54521D01*
X70019Y54572D01*
X69967Y54625D01*
X69918Y54682D01*
X69872Y54741D01*
X69830Y54802D01*
X69791Y54866D01*
X69755Y54931D01*
X69722Y54998D01*
X69693Y55067D01*
X69668Y55138D01*
X69647Y55209D01*
X69629Y55282D01*
X69616Y55355D01*
X69606Y55429D01*
X69600Y55503D01*
X69598Y55578D01*
D14*
X81012Y6578D02*
X111012Y6578D01*
X66012Y32578D02*
X66012Y49078D01*
X118512Y49078D02*
X126012Y49078D01*
X126012Y32578D01*
X73512Y49078D02*
X66012Y49078D01*
D13*
X145290Y55832D02*
X145292Y55907D01*
X145298Y55981D01*
X145308Y56055D01*
X145321Y56128D01*
X145339Y56201D01*
X145360Y56272D01*
X145385Y56343D01*
X145414Y56412D01*
X145447Y56479D01*
X145483Y56544D01*
X145522Y56608D01*
X145564Y56669D01*
X145610Y56728D01*
X145659Y56785D01*
X145711Y56838D01*
X145765Y56889D01*
X145822Y56938D01*
X145882Y56982D01*
X145944Y57024D01*
X146008Y57063D01*
X146074Y57098D01*
X146141Y57129D01*
X146211Y57157D01*
X146281Y57181D01*
X146353Y57202D01*
X146426Y57218D01*
X146499Y57231D01*
X146574Y57240D01*
X146648Y57245D01*
X146723Y57246D01*
X146797Y57243D01*
X146872Y57236D01*
X146945Y57225D01*
X147019Y57211D01*
X147091Y57192D01*
X147162Y57170D01*
X147232Y57144D01*
X147301Y57114D01*
X147367Y57081D01*
X147432Y57044D01*
X147495Y57004D01*
X147556Y56960D01*
X147614Y56914D01*
X147670Y56864D01*
X147723Y56812D01*
X147774Y56757D01*
X147821Y56699D01*
X147865Y56639D01*
X147906Y56576D01*
X147944Y56512D01*
X147978Y56446D01*
X148009Y56377D01*
X148036Y56308D01*
X148059Y56237D01*
X148078Y56165D01*
X148094Y56092D01*
X148106Y56018D01*
X148114Y55944D01*
X148118Y55869D01*
X148118Y55795D01*
X148114Y55720D01*
X148106Y55646D01*
X148094Y55572D01*
X148078Y55499D01*
X148059Y55427D01*
X148036Y55356D01*
X148009Y55287D01*
X147978Y55218D01*
X147944Y55152D01*
X147906Y55088D01*
X147865Y55025D01*
X147821Y54965D01*
X147774Y54907D01*
X147723Y54852D01*
X147670Y54800D01*
X147614Y54750D01*
X147556Y54704D01*
X147495Y54660D01*
X147432Y54620D01*
X147367Y54583D01*
X147301Y54550D01*
X147232Y54520D01*
X147162Y54494D01*
X147091Y54472D01*
X147019Y54453D01*
X146945Y54439D01*
X146872Y54428D01*
X146797Y54421D01*
X146723Y54418D01*
X146648Y54419D01*
X146574Y54424D01*
X146499Y54433D01*
X146426Y54446D01*
X146353Y54462D01*
X146281Y54483D01*
X146211Y54507D01*
X146141Y54535D01*
X146074Y54566D01*
X146008Y54601D01*
X145944Y54640D01*
X145882Y54682D01*
X145822Y54726D01*
X145765Y54775D01*
X145711Y54826D01*
X145659Y54879D01*
X145610Y54936D01*
X145564Y54995D01*
X145522Y55056D01*
X145483Y55120D01*
X145447Y55185D01*
X145414Y55252D01*
X145385Y55321D01*
X145360Y55392D01*
X145339Y55463D01*
X145321Y55536D01*
X145308Y55609D01*
X145298Y55683D01*
X145292Y55757D01*
X145290Y55832D01*
D14*
X156704Y6832D02*
X186704Y6832D01*
X141704Y32832D02*
X141704Y49332D01*
X194204Y49332D02*
X201704Y49332D01*
X201704Y32832D01*
X149204Y49332D02*
X141704Y49332D01*
D15*
X1778Y85344D02*
X1778Y102616D01*
X19558Y82804D02*
X19658Y82806D01*
X19757Y82812D01*
X19857Y82822D01*
X19955Y82835D01*
X20054Y82853D01*
X20151Y82874D01*
X20247Y82899D01*
X20343Y82928D01*
X20437Y82961D01*
X20530Y82997D01*
X20621Y83037D01*
X20711Y83081D01*
X20799Y83128D01*
X20885Y83178D01*
X20969Y83232D01*
X21051Y83289D01*
X21130Y83349D01*
X21208Y83413D01*
X21282Y83479D01*
X21354Y83548D01*
X21423Y83620D01*
X21489Y83694D01*
X21553Y83772D01*
X21613Y83851D01*
X21670Y83933D01*
X21724Y84017D01*
X21774Y84103D01*
X21821Y84191D01*
X21865Y84281D01*
X21905Y84372D01*
X21941Y84465D01*
X21974Y84559D01*
X22003Y84655D01*
X22028Y84751D01*
X22049Y84848D01*
X22067Y84947D01*
X22080Y85045D01*
X22090Y85145D01*
X22096Y85244D01*
X22098Y85344D01*
X22098Y102616D02*
X22096Y102716D01*
X22090Y102815D01*
X22080Y102915D01*
X22067Y103013D01*
X22049Y103112D01*
X22028Y103209D01*
X22003Y103305D01*
X21974Y103401D01*
X21941Y103495D01*
X21905Y103588D01*
X21865Y103679D01*
X21821Y103769D01*
X21774Y103857D01*
X21724Y103943D01*
X21670Y104027D01*
X21613Y104109D01*
X21553Y104188D01*
X21489Y104266D01*
X21423Y104340D01*
X21354Y104412D01*
X21282Y104481D01*
X21208Y104547D01*
X21130Y104611D01*
X21051Y104671D01*
X20969Y104728D01*
X20885Y104782D01*
X20799Y104832D01*
X20711Y104879D01*
X20621Y104923D01*
X20530Y104963D01*
X20437Y104999D01*
X20343Y105032D01*
X20247Y105061D01*
X20151Y105086D01*
X20054Y105107D01*
X19955Y105125D01*
X19857Y105138D01*
X19757Y105148D01*
X19658Y105154D01*
X19558Y105156D01*
X4318Y105156D02*
X4218Y105154D01*
X4119Y105148D01*
X4019Y105138D01*
X3921Y105125D01*
X3822Y105107D01*
X3725Y105086D01*
X3629Y105061D01*
X3533Y105032D01*
X3439Y104999D01*
X3346Y104963D01*
X3255Y104923D01*
X3165Y104879D01*
X3077Y104832D01*
X2991Y104782D01*
X2907Y104728D01*
X2825Y104671D01*
X2746Y104611D01*
X2668Y104547D01*
X2594Y104481D01*
X2522Y104412D01*
X2453Y104340D01*
X2387Y104266D01*
X2323Y104188D01*
X2263Y104109D01*
X2206Y104027D01*
X2152Y103943D01*
X2102Y103857D01*
X2055Y103769D01*
X2011Y103679D01*
X1971Y103588D01*
X1935Y103495D01*
X1902Y103401D01*
X1873Y103305D01*
X1848Y103209D01*
X1827Y103112D01*
X1809Y103013D01*
X1796Y102915D01*
X1786Y102815D01*
X1780Y102716D01*
X1778Y102616D01*
X1778Y85344D02*
X1780Y85244D01*
X1786Y85145D01*
X1796Y85045D01*
X1809Y84947D01*
X1827Y84848D01*
X1848Y84751D01*
X1873Y84655D01*
X1902Y84559D01*
X1935Y84465D01*
X1971Y84372D01*
X2011Y84281D01*
X2055Y84191D01*
X2102Y84103D01*
X2152Y84017D01*
X2206Y83933D01*
X2263Y83851D01*
X2323Y83772D01*
X2387Y83694D01*
X2453Y83620D01*
X2522Y83548D01*
X2594Y83479D01*
X2668Y83413D01*
X2746Y83349D01*
X2825Y83289D01*
X2907Y83232D01*
X2991Y83178D01*
X3077Y83128D01*
X3165Y83081D01*
X3255Y83037D01*
X3346Y82997D01*
X3439Y82961D01*
X3533Y82928D01*
X3629Y82899D01*
X3725Y82874D01*
X3822Y82853D01*
X3921Y82835D01*
X4019Y82822D01*
X4119Y82812D01*
X4218Y82806D01*
X4318Y82804D01*
X19558Y82804D01*
X19558Y105156D02*
X4318Y105156D01*
X22098Y102616D02*
X22098Y85344D01*
X22098Y76962D02*
X22098Y59690D01*
X4318Y79502D02*
X4218Y79500D01*
X4119Y79494D01*
X4019Y79484D01*
X3921Y79471D01*
X3822Y79453D01*
X3725Y79432D01*
X3629Y79407D01*
X3533Y79378D01*
X3439Y79345D01*
X3346Y79309D01*
X3255Y79269D01*
X3165Y79225D01*
X3077Y79178D01*
X2991Y79128D01*
X2907Y79074D01*
X2825Y79017D01*
X2746Y78957D01*
X2668Y78893D01*
X2594Y78827D01*
X2522Y78758D01*
X2453Y78686D01*
X2387Y78612D01*
X2323Y78534D01*
X2263Y78455D01*
X2206Y78373D01*
X2152Y78289D01*
X2102Y78203D01*
X2055Y78115D01*
X2011Y78025D01*
X1971Y77934D01*
X1935Y77841D01*
X1902Y77747D01*
X1873Y77651D01*
X1848Y77555D01*
X1827Y77458D01*
X1809Y77359D01*
X1796Y77261D01*
X1786Y77161D01*
X1780Y77062D01*
X1778Y76962D01*
X1778Y59690D02*
X1780Y59590D01*
X1786Y59491D01*
X1796Y59391D01*
X1809Y59293D01*
X1827Y59194D01*
X1848Y59097D01*
X1873Y59001D01*
X1902Y58905D01*
X1935Y58811D01*
X1971Y58718D01*
X2011Y58627D01*
X2055Y58537D01*
X2102Y58449D01*
X2152Y58363D01*
X2206Y58279D01*
X2263Y58197D01*
X2323Y58118D01*
X2387Y58040D01*
X2453Y57966D01*
X2522Y57894D01*
X2594Y57825D01*
X2668Y57759D01*
X2746Y57695D01*
X2825Y57635D01*
X2907Y57578D01*
X2991Y57524D01*
X3077Y57474D01*
X3165Y57427D01*
X3255Y57383D01*
X3346Y57343D01*
X3439Y57307D01*
X3533Y57274D01*
X3629Y57245D01*
X3725Y57220D01*
X3822Y57199D01*
X3921Y57181D01*
X4019Y57168D01*
X4119Y57158D01*
X4218Y57152D01*
X4318Y57150D01*
X19558Y57150D02*
X19658Y57152D01*
X19757Y57158D01*
X19857Y57168D01*
X19955Y57181D01*
X20054Y57199D01*
X20151Y57220D01*
X20247Y57245D01*
X20343Y57274D01*
X20437Y57307D01*
X20530Y57343D01*
X20621Y57383D01*
X20711Y57427D01*
X20799Y57474D01*
X20885Y57524D01*
X20969Y57578D01*
X21051Y57635D01*
X21130Y57695D01*
X21208Y57759D01*
X21282Y57825D01*
X21354Y57894D01*
X21423Y57966D01*
X21489Y58040D01*
X21553Y58118D01*
X21613Y58197D01*
X21670Y58279D01*
X21724Y58363D01*
X21774Y58449D01*
X21821Y58537D01*
X21865Y58627D01*
X21905Y58718D01*
X21941Y58811D01*
X21974Y58905D01*
X22003Y59001D01*
X22028Y59097D01*
X22049Y59194D01*
X22067Y59293D01*
X22080Y59391D01*
X22090Y59491D01*
X22096Y59590D01*
X22098Y59690D01*
X22098Y76962D02*
X22096Y77062D01*
X22090Y77161D01*
X22080Y77261D01*
X22067Y77359D01*
X22049Y77458D01*
X22028Y77555D01*
X22003Y77651D01*
X21974Y77747D01*
X21941Y77841D01*
X21905Y77934D01*
X21865Y78025D01*
X21821Y78115D01*
X21774Y78203D01*
X21724Y78289D01*
X21670Y78373D01*
X21613Y78455D01*
X21553Y78534D01*
X21489Y78612D01*
X21423Y78686D01*
X21354Y78758D01*
X21282Y78827D01*
X21208Y78893D01*
X21130Y78957D01*
X21051Y79017D01*
X20969Y79074D01*
X20885Y79128D01*
X20799Y79178D01*
X20711Y79225D01*
X20621Y79269D01*
X20530Y79309D01*
X20437Y79345D01*
X20343Y79378D01*
X20247Y79407D01*
X20151Y79432D01*
X20054Y79453D01*
X19955Y79471D01*
X19857Y79484D01*
X19757Y79494D01*
X19658Y79500D01*
X19558Y79502D01*
X4318Y79502D01*
X4318Y57150D02*
X19558Y57150D01*
X1778Y59690D02*
X1778Y76962D01*
D12*
X155956Y96266D02*
X155956Y124206D01*
X155956Y96266D02*
X143256Y96266D01*
X143256Y124206D01*
X155956Y124206D01*
X114300Y239268D02*
X114300Y267208D01*
X127000Y267208D01*
X127000Y239268D01*
X114300Y239268D01*
X64516Y239268D02*
X64516Y267208D01*
X77216Y267208D01*
X77216Y239268D01*
X64516Y239268D01*
X55372Y96266D02*
X27432Y96266D01*
X55372Y96266D02*
X55372Y83566D01*
X27432Y83566D01*
X27432Y96266D01*
X27432Y78740D02*
X55372Y78740D01*
X55372Y66040D01*
X27432Y66040D01*
X27432Y78740D01*
X215646Y89154D02*
X215646Y61214D01*
X215646Y89154D02*
X228346Y89154D01*
X228346Y61214D01*
X215646Y61214D01*
X140716Y96266D02*
X140716Y124206D01*
X140716Y96266D02*
X128016Y96266D01*
X128016Y124206D01*
X140716Y124206D01*
X125730Y124206D02*
X125730Y96266D01*
X113030Y96266D01*
X113030Y124206D01*
X125730Y124206D01*
D15*
X87408Y135238D02*
X87408Y231030D01*
X87408Y135238D02*
X133064Y135238D01*
X133064Y231030D01*
X87408Y231030D01*
D16*
X89694Y228744D02*
X89694Y137524D01*
X130778Y137524D01*
X130778Y228744D01*
X89694Y228744D01*
D15*
X93472Y218890D02*
X93474Y219025D01*
X93480Y219160D01*
X93490Y219294D01*
X93504Y219428D01*
X93522Y219562D01*
X93543Y219695D01*
X93569Y219827D01*
X93599Y219959D01*
X93632Y220090D01*
X93669Y220219D01*
X93711Y220348D01*
X93755Y220475D01*
X93804Y220601D01*
X93856Y220725D01*
X93912Y220848D01*
X93972Y220969D01*
X94035Y221088D01*
X94101Y221205D01*
X94171Y221320D01*
X94245Y221434D01*
X94322Y221545D01*
X94401Y221653D01*
X94485Y221759D01*
X94571Y221863D01*
X94660Y221964D01*
X94752Y222063D01*
X94847Y222158D01*
X94945Y222251D01*
X95045Y222341D01*
X95148Y222428D01*
X95254Y222512D01*
X95362Y222593D01*
X95472Y222670D01*
X95585Y222744D01*
X95700Y222815D01*
X95817Y222883D01*
X95935Y222947D01*
X96056Y223007D01*
X96178Y223064D01*
X96302Y223117D01*
X96428Y223167D01*
X96554Y223213D01*
X96683Y223255D01*
X96812Y223293D01*
X96942Y223327D01*
X97074Y223358D01*
X97206Y223385D01*
X97339Y223407D01*
X97472Y223426D01*
X97606Y223441D01*
X97741Y223452D01*
X97875Y223459D01*
X98010Y223462D01*
X98145Y223461D01*
X98280Y223456D01*
X98414Y223447D01*
X98549Y223434D01*
X98683Y223417D01*
X98816Y223396D01*
X98948Y223372D01*
X99080Y223343D01*
X99211Y223311D01*
X99341Y223274D01*
X99470Y223234D01*
X99597Y223190D01*
X99723Y223142D01*
X99848Y223091D01*
X99971Y223036D01*
X100093Y222977D01*
X100212Y222915D01*
X100330Y222849D01*
X100446Y222780D01*
X100559Y222708D01*
X100671Y222632D01*
X100780Y222553D01*
X100887Y222471D01*
X100991Y222385D01*
X101093Y222297D01*
X101192Y222205D01*
X101289Y222111D01*
X101382Y222014D01*
X101473Y221914D01*
X101561Y221812D01*
X101645Y221707D01*
X101727Y221599D01*
X101805Y221489D01*
X101880Y221377D01*
X101952Y221263D01*
X102020Y221147D01*
X102085Y221028D01*
X102146Y220908D01*
X102204Y220786D01*
X102258Y220663D01*
X102309Y220538D01*
X102355Y220411D01*
X102398Y220284D01*
X102438Y220155D01*
X102473Y220024D01*
X102505Y219893D01*
X102532Y219761D01*
X102556Y219629D01*
X102576Y219495D01*
X102592Y219361D01*
X102604Y219227D01*
X102612Y219092D01*
X102616Y218957D01*
X102616Y218823D01*
X102612Y218688D01*
X102604Y218553D01*
X102592Y218419D01*
X102576Y218285D01*
X102556Y218151D01*
X102532Y218019D01*
X102505Y217887D01*
X102473Y217756D01*
X102438Y217625D01*
X102398Y217496D01*
X102355Y217369D01*
X102309Y217242D01*
X102258Y217117D01*
X102204Y216994D01*
X102146Y216872D01*
X102085Y216752D01*
X102020Y216633D01*
X101952Y216517D01*
X101880Y216403D01*
X101805Y216291D01*
X101727Y216181D01*
X101645Y216073D01*
X101561Y215968D01*
X101473Y215866D01*
X101382Y215766D01*
X101289Y215669D01*
X101192Y215575D01*
X101093Y215483D01*
X100991Y215395D01*
X100887Y215309D01*
X100780Y215227D01*
X100671Y215148D01*
X100559Y215072D01*
X100446Y215000D01*
X100330Y214931D01*
X100212Y214865D01*
X100093Y214803D01*
X99971Y214744D01*
X99848Y214689D01*
X99723Y214638D01*
X99597Y214590D01*
X99470Y214546D01*
X99341Y214506D01*
X99211Y214469D01*
X99080Y214437D01*
X98948Y214408D01*
X98816Y214384D01*
X98683Y214363D01*
X98549Y214346D01*
X98414Y214333D01*
X98280Y214324D01*
X98145Y214319D01*
X98010Y214318D01*
X97875Y214321D01*
X97741Y214328D01*
X97606Y214339D01*
X97472Y214354D01*
X97339Y214373D01*
X97206Y214395D01*
X97074Y214422D01*
X96942Y214453D01*
X96812Y214487D01*
X96683Y214525D01*
X96554Y214567D01*
X96428Y214613D01*
X96302Y214663D01*
X96178Y214716D01*
X96056Y214773D01*
X95935Y214833D01*
X95817Y214897D01*
X95700Y214965D01*
X95585Y215036D01*
X95472Y215110D01*
X95362Y215187D01*
X95254Y215268D01*
X95148Y215352D01*
X95045Y215439D01*
X94945Y215529D01*
X94847Y215622D01*
X94752Y215717D01*
X94660Y215816D01*
X94571Y215917D01*
X94485Y216021D01*
X94401Y216127D01*
X94322Y216235D01*
X94245Y216346D01*
X94171Y216460D01*
X94101Y216575D01*
X94035Y216692D01*
X93972Y216811D01*
X93912Y216932D01*
X93856Y217055D01*
X93804Y217179D01*
X93755Y217305D01*
X93711Y217432D01*
X93669Y217561D01*
X93632Y217690D01*
X93599Y217821D01*
X93569Y217953D01*
X93543Y218085D01*
X93522Y218218D01*
X93504Y218352D01*
X93490Y218486D01*
X93480Y218620D01*
X93474Y218755D01*
X93472Y218890D01*
D17*
X56134Y217678D02*
X56134Y156718D01*
X12954Y156718D02*
X12954Y217678D01*
D15*
X51054Y217678D02*
X51054Y156718D01*
X18034Y156718D02*
X18034Y217678D01*
X26924Y189738D02*
X26924Y184658D01*
X26924Y189738D02*
X42164Y189738D01*
X42164Y184658D01*
X26924Y184658D01*
X26924Y193548D02*
X34544Y193548D01*
X42164Y193548D01*
X34544Y180848D02*
X26924Y180848D01*
X34544Y180848D02*
X42164Y180848D01*
X34544Y193548D02*
X34544Y199898D01*
X34544Y180848D02*
X34544Y174498D01*
D17*
X12954Y156718D02*
X12960Y156192D01*
X12980Y155667D01*
X13012Y155142D01*
X13056Y154618D01*
X13114Y154096D01*
X13184Y153574D01*
X13267Y153055D01*
X13362Y152538D01*
X13471Y152024D01*
X13591Y151512D01*
X13724Y151003D01*
X13869Y150498D01*
X14027Y149996D01*
X14197Y149499D01*
X14379Y149005D01*
X14572Y148517D01*
X14778Y148033D01*
X14995Y147554D01*
X15224Y147081D01*
X15465Y146613D01*
X15716Y146151D01*
X15979Y145696D01*
X16253Y145247D01*
X16538Y144805D01*
X16833Y144370D01*
X17139Y143943D01*
X17456Y143523D01*
X17782Y143111D01*
X18118Y142706D01*
X18464Y142311D01*
X18820Y141923D01*
X19185Y141545D01*
X19559Y141175D01*
X19942Y140815D01*
X20333Y140464D01*
X20733Y140123D01*
X21142Y139792D01*
X21558Y139470D01*
X21982Y139159D01*
X22413Y138858D01*
X22851Y138568D01*
X23297Y138289D01*
X23749Y138021D01*
X24208Y137763D01*
X24672Y137517D01*
X25143Y137282D01*
X25619Y137059D01*
X26100Y136848D01*
X26586Y136648D01*
X27077Y136460D01*
X27573Y136284D01*
X28073Y136121D01*
X28576Y135969D01*
X29083Y135830D01*
X29593Y135703D01*
X30107Y135589D01*
X30622Y135487D01*
X31141Y135398D01*
X31661Y135321D01*
X32183Y135258D01*
X32706Y135206D01*
X33230Y135168D01*
X33755Y135142D01*
X34281Y135130D01*
X34807Y135130D01*
X35333Y135142D01*
X35858Y135168D01*
X36382Y135206D01*
X36905Y135258D01*
X37427Y135321D01*
X37947Y135398D01*
X38466Y135487D01*
X38981Y135589D01*
X39495Y135703D01*
X40005Y135830D01*
X40512Y135969D01*
X41015Y136121D01*
X41515Y136284D01*
X42011Y136460D01*
X42502Y136648D01*
X42988Y136848D01*
X43469Y137059D01*
X43945Y137282D01*
X44416Y137517D01*
X44880Y137763D01*
X45339Y138021D01*
X45791Y138289D01*
X46237Y138568D01*
X46675Y138858D01*
X47106Y139159D01*
X47530Y139470D01*
X47946Y139792D01*
X48355Y140123D01*
X48755Y140464D01*
X49146Y140815D01*
X49529Y141175D01*
X49903Y141545D01*
X50268Y141923D01*
X50624Y142311D01*
X50970Y142706D01*
X51306Y143111D01*
X51632Y143523D01*
X51949Y143943D01*
X52255Y144370D01*
X52550Y144805D01*
X52835Y145247D01*
X53109Y145696D01*
X53372Y146151D01*
X53623Y146613D01*
X53864Y147081D01*
X54093Y147554D01*
X54310Y148033D01*
X54516Y148517D01*
X54709Y149005D01*
X54891Y149499D01*
X55061Y149996D01*
X55219Y150498D01*
X55364Y151003D01*
X55497Y151512D01*
X55617Y152024D01*
X55726Y152538D01*
X55821Y153055D01*
X55904Y153574D01*
X55974Y154096D01*
X56032Y154618D01*
X56076Y155142D01*
X56108Y155667D01*
X56128Y156192D01*
X56134Y156718D01*
X56134Y217678D02*
X56128Y218204D01*
X56108Y218729D01*
X56076Y219254D01*
X56032Y219778D01*
X55974Y220300D01*
X55904Y220822D01*
X55821Y221341D01*
X55726Y221858D01*
X55617Y222372D01*
X55497Y222884D01*
X55364Y223393D01*
X55219Y223898D01*
X55061Y224400D01*
X54891Y224897D01*
X54709Y225391D01*
X54516Y225879D01*
X54310Y226363D01*
X54093Y226842D01*
X53864Y227315D01*
X53623Y227783D01*
X53372Y228245D01*
X53109Y228700D01*
X52835Y229149D01*
X52550Y229591D01*
X52255Y230026D01*
X51949Y230453D01*
X51632Y230873D01*
X51306Y231285D01*
X50970Y231690D01*
X50624Y232085D01*
X50268Y232473D01*
X49903Y232851D01*
X49529Y233221D01*
X49146Y233581D01*
X48755Y233932D01*
X48355Y234273D01*
X47946Y234604D01*
X47530Y234926D01*
X47106Y235237D01*
X46675Y235538D01*
X46237Y235828D01*
X45791Y236107D01*
X45339Y236375D01*
X44880Y236633D01*
X44416Y236879D01*
X43945Y237114D01*
X43469Y237337D01*
X42988Y237548D01*
X42502Y237748D01*
X42011Y237936D01*
X41515Y238112D01*
X41015Y238275D01*
X40512Y238427D01*
X40005Y238566D01*
X39495Y238693D01*
X38981Y238807D01*
X38466Y238909D01*
X37947Y238998D01*
X37427Y239075D01*
X36905Y239138D01*
X36382Y239190D01*
X35858Y239228D01*
X35333Y239254D01*
X34807Y239266D01*
X34281Y239266D01*
X33755Y239254D01*
X33230Y239228D01*
X32706Y239190D01*
X32183Y239138D01*
X31661Y239075D01*
X31141Y238998D01*
X30622Y238909D01*
X30107Y238807D01*
X29593Y238693D01*
X29083Y238566D01*
X28576Y238427D01*
X28073Y238275D01*
X27573Y238112D01*
X27077Y237936D01*
X26586Y237748D01*
X26100Y237548D01*
X25619Y237337D01*
X25143Y237114D01*
X24672Y236879D01*
X24208Y236633D01*
X23749Y236375D01*
X23297Y236107D01*
X22851Y235828D01*
X22413Y235538D01*
X21982Y235237D01*
X21558Y234926D01*
X21142Y234604D01*
X20733Y234273D01*
X20333Y233932D01*
X19942Y233581D01*
X19559Y233221D01*
X19185Y232851D01*
X18820Y232473D01*
X18464Y232085D01*
X18118Y231690D01*
X17782Y231285D01*
X17456Y230873D01*
X17139Y230453D01*
X16833Y230026D01*
X16538Y229591D01*
X16253Y229149D01*
X15979Y228700D01*
X15716Y228245D01*
X15465Y227783D01*
X15224Y227315D01*
X14995Y226842D01*
X14778Y226363D01*
X14572Y225879D01*
X14379Y225391D01*
X14197Y224897D01*
X14027Y224400D01*
X13869Y223898D01*
X13724Y223393D01*
X13591Y222884D01*
X13471Y222372D01*
X13362Y221858D01*
X13267Y221341D01*
X13184Y220822D01*
X13114Y220300D01*
X13056Y219778D01*
X13012Y219254D01*
X12980Y218729D01*
X12960Y218204D01*
X12954Y217678D01*
D15*
X18034Y156718D02*
X18039Y156316D01*
X18054Y155914D01*
X18078Y155513D01*
X18112Y155112D01*
X18156Y154713D01*
X18210Y154314D01*
X18273Y153917D01*
X18346Y153522D01*
X18429Y153128D01*
X18521Y152737D01*
X18623Y152348D01*
X18734Y151961D01*
X18855Y151578D01*
X18984Y151197D01*
X19123Y150820D01*
X19272Y150446D01*
X19429Y150076D01*
X19595Y149710D01*
X19770Y149348D01*
X19954Y148991D01*
X20146Y148638D01*
X20347Y148290D01*
X20557Y147946D01*
X20775Y147608D01*
X21001Y147276D01*
X21235Y146949D01*
X21476Y146628D01*
X21726Y146312D01*
X21983Y146003D01*
X22248Y145701D01*
X22520Y145404D01*
X22799Y145115D01*
X23085Y144832D01*
X23378Y144557D01*
X23677Y144289D01*
X23983Y144028D01*
X24295Y143774D01*
X24613Y143528D01*
X24938Y143291D01*
X25267Y143061D01*
X25603Y142839D01*
X25943Y142625D01*
X26289Y142420D01*
X26640Y142223D01*
X26995Y142035D01*
X27355Y141855D01*
X27719Y141685D01*
X28087Y141523D01*
X28459Y141370D01*
X28834Y141227D01*
X29213Y141092D01*
X29595Y140967D01*
X29980Y140851D01*
X30368Y140745D01*
X30758Y140648D01*
X31151Y140560D01*
X31545Y140483D01*
X31941Y140414D01*
X32339Y140356D01*
X32738Y140307D01*
X33138Y140268D01*
X33539Y140239D01*
X33941Y140219D01*
X34343Y140209D01*
X34745Y140209D01*
X35147Y140219D01*
X35549Y140239D01*
X35950Y140268D01*
X36350Y140307D01*
X36749Y140356D01*
X37147Y140414D01*
X37543Y140483D01*
X37937Y140560D01*
X38330Y140648D01*
X38720Y140745D01*
X39108Y140851D01*
X39493Y140967D01*
X39875Y141092D01*
X40254Y141227D01*
X40629Y141370D01*
X41001Y141523D01*
X41369Y141685D01*
X41733Y141855D01*
X42093Y142035D01*
X42448Y142223D01*
X42799Y142420D01*
X43145Y142625D01*
X43485Y142839D01*
X43821Y143061D01*
X44150Y143291D01*
X44475Y143528D01*
X44793Y143774D01*
X45105Y144028D01*
X45411Y144289D01*
X45710Y144557D01*
X46003Y144832D01*
X46289Y145115D01*
X46568Y145404D01*
X46840Y145701D01*
X47105Y146003D01*
X47362Y146312D01*
X47612Y146628D01*
X47853Y146949D01*
X48087Y147276D01*
X48313Y147608D01*
X48531Y147946D01*
X48741Y148290D01*
X48942Y148638D01*
X49134Y148991D01*
X49318Y149348D01*
X49493Y149710D01*
X49659Y150076D01*
X49816Y150446D01*
X49965Y150820D01*
X50104Y151197D01*
X50233Y151578D01*
X50354Y151961D01*
X50465Y152348D01*
X50567Y152737D01*
X50659Y153128D01*
X50742Y153522D01*
X50815Y153917D01*
X50878Y154314D01*
X50932Y154713D01*
X50976Y155112D01*
X51010Y155513D01*
X51034Y155914D01*
X51049Y156316D01*
X51054Y156718D01*
X51054Y217678D02*
X51049Y218080D01*
X51034Y218482D01*
X51010Y218883D01*
X50976Y219284D01*
X50932Y219683D01*
X50878Y220082D01*
X50815Y220479D01*
X50742Y220874D01*
X50659Y221268D01*
X50567Y221659D01*
X50465Y222048D01*
X50354Y222435D01*
X50233Y222818D01*
X50104Y223199D01*
X49965Y223576D01*
X49816Y223950D01*
X49659Y224320D01*
X49493Y224686D01*
X49318Y225048D01*
X49134Y225405D01*
X48942Y225758D01*
X48741Y226106D01*
X48531Y226450D01*
X48313Y226788D01*
X48087Y227120D01*
X47853Y227447D01*
X47612Y227768D01*
X47362Y228084D01*
X47105Y228393D01*
X46840Y228695D01*
X46568Y228992D01*
X46289Y229281D01*
X46003Y229564D01*
X45710Y229839D01*
X45411Y230107D01*
X45105Y230368D01*
X44793Y230622D01*
X44475Y230868D01*
X44150Y231105D01*
X43821Y231335D01*
X43485Y231557D01*
X43145Y231771D01*
X42799Y231976D01*
X42448Y232173D01*
X42093Y232361D01*
X41733Y232541D01*
X41369Y232711D01*
X41001Y232873D01*
X40629Y233026D01*
X40254Y233169D01*
X39875Y233304D01*
X39493Y233429D01*
X39108Y233545D01*
X38720Y233651D01*
X38330Y233748D01*
X37937Y233836D01*
X37543Y233913D01*
X37147Y233982D01*
X36749Y234040D01*
X36350Y234089D01*
X35950Y234128D01*
X35549Y234157D01*
X35147Y234177D01*
X34745Y234187D01*
X34343Y234187D01*
X33941Y234177D01*
X33539Y234157D01*
X33138Y234128D01*
X32738Y234089D01*
X32339Y234040D01*
X31941Y233982D01*
X31545Y233913D01*
X31151Y233836D01*
X30758Y233748D01*
X30368Y233651D01*
X29980Y233545D01*
X29595Y233429D01*
X29213Y233304D01*
X28834Y233169D01*
X28459Y233026D01*
X28087Y232873D01*
X27719Y232711D01*
X27355Y232541D01*
X26995Y232361D01*
X26640Y232173D01*
X26289Y231976D01*
X25943Y231771D01*
X25603Y231557D01*
X25267Y231335D01*
X24938Y231105D01*
X24613Y230868D01*
X24295Y230622D01*
X23983Y230368D01*
X23677Y230107D01*
X23378Y229839D01*
X23085Y229564D01*
X22799Y229281D01*
X22520Y228992D01*
X22248Y228695D01*
X21983Y228393D01*
X21726Y228084D01*
X21476Y227768D01*
X21235Y227447D01*
X21001Y227120D01*
X20775Y226788D01*
X20557Y226450D01*
X20347Y226106D01*
X20146Y225758D01*
X19954Y225405D01*
X19770Y225048D01*
X19595Y224686D01*
X19429Y224320D01*
X19272Y223950D01*
X19123Y223576D01*
X18984Y223199D01*
X18855Y222818D01*
X18734Y222435D01*
X18623Y222048D01*
X18521Y221659D01*
X18429Y221268D01*
X18346Y220874D01*
X18273Y220479D01*
X18210Y220082D01*
X18156Y219683D01*
X18112Y219284D01*
X18078Y218883D01*
X18054Y218482D01*
X18039Y218080D01*
X18034Y217678D01*
X172680Y285740D02*
X294680Y285740D01*
X172680Y224740D02*
X172680Y208740D01*
X294680Y208740D02*
X294680Y224740D01*
X294680Y125740D02*
X172680Y125740D01*
D12*
X317500Y180086D02*
X317500Y208026D01*
X330200Y208026D01*
X330200Y180086D01*
X317500Y180086D01*
X326772Y123254D02*
X342772Y123254D01*
X326772Y123254D02*
X326772Y131254D01*
X342772Y131254D01*
X342772Y123254D01*
X336042Y123444D02*
X336042Y131064D01*
X334772Y129159D01*
X333502Y127254D01*
X334772Y125349D01*
X336042Y123444D01*
X335407Y124714D02*
X335407Y129794D01*
X334772Y129159D02*
X334772Y125349D01*
X342772Y138240D02*
X326772Y138240D01*
X326772Y146240D01*
X342772Y146240D01*
X342772Y138240D01*
X336042Y138430D02*
X336042Y146050D01*
X334772Y144145D01*
X333502Y142240D01*
X334772Y140335D01*
X336042Y138430D01*
X335407Y139700D02*
X335407Y144780D01*
X334772Y144145D02*
X334772Y140335D01*
X347980Y105156D02*
X320040Y105156D01*
X320040Y117856D01*
X347980Y117856D01*
X347980Y105156D01*
X348234Y151384D02*
X320294Y151384D01*
X320294Y164084D01*
X348234Y164084D01*
X348234Y151384D01*
X317500Y213360D02*
X317500Y241300D01*
X330200Y241300D01*
X330200Y213360D01*
X317500Y213360D01*
X317500Y249682D02*
X317500Y277622D01*
X330200Y277622D01*
X330200Y249682D01*
X317500Y249682D01*
D18*
X330850Y303230D02*
X344850Y303230D01*
X344850Y329230D01*
X302850Y329230D02*
X302850Y303230D01*
X316850Y303230D01*
X330850Y329230D02*
X344850Y329230D01*
X316850Y329230D02*
X302850Y329230D01*
X330850Y302230D02*
X343850Y302230D01*
X316850Y302230D02*
X303850Y302230D01*
X330850Y301230D02*
X344850Y301230D01*
X316850Y301230D02*
X302850Y301230D01*
X344850Y301230D02*
X344850Y303230D01*
X330850Y303230D02*
X330850Y301230D01*
X316850Y301230D02*
X316850Y303230D01*
X302850Y303230D02*
X302850Y301230D01*
D19*
X255432Y84582D02*
X255440Y85220D01*
X255463Y85858D01*
X255502Y86495D01*
X255557Y87130D01*
X255628Y87765D01*
X255713Y88397D01*
X255815Y89027D01*
X255932Y89654D01*
X256064Y90279D01*
X256211Y90899D01*
X256374Y91517D01*
X256552Y92129D01*
X256744Y92738D01*
X256952Y93341D01*
X257174Y93939D01*
X257411Y94532D01*
X257663Y95118D01*
X257928Y95698D01*
X258208Y96272D01*
X258502Y96838D01*
X258810Y97397D01*
X259131Y97949D01*
X259466Y98492D01*
X259814Y99027D01*
X260175Y99553D01*
X260549Y100070D01*
X260935Y100578D01*
X261334Y101076D01*
X261745Y101564D01*
X262167Y102043D01*
X262602Y102510D01*
X263047Y102967D01*
X263504Y103412D01*
X263971Y103847D01*
X264450Y104269D01*
X264938Y104680D01*
X265436Y105079D01*
X265944Y105465D01*
X266461Y105839D01*
X266987Y106200D01*
X267522Y106548D01*
X268065Y106883D01*
X268617Y107204D01*
X269176Y107512D01*
X269742Y107806D01*
X270316Y108086D01*
X270896Y108351D01*
X271482Y108603D01*
X272075Y108840D01*
X272673Y109062D01*
X273276Y109270D01*
X273885Y109462D01*
X274497Y109640D01*
X275115Y109803D01*
X275735Y109950D01*
X276360Y110082D01*
X276987Y110199D01*
X277617Y110301D01*
X278249Y110386D01*
X278884Y110457D01*
X279519Y110512D01*
X280156Y110551D01*
X280794Y110574D01*
X281432Y110582D01*
X282070Y110574D01*
X282708Y110551D01*
X283345Y110512D01*
X283980Y110457D01*
X284615Y110386D01*
X285247Y110301D01*
X285877Y110199D01*
X286504Y110082D01*
X287129Y109950D01*
X287749Y109803D01*
X288367Y109640D01*
X288979Y109462D01*
X289588Y109270D01*
X290191Y109062D01*
X290789Y108840D01*
X291382Y108603D01*
X291968Y108351D01*
X292548Y108086D01*
X293122Y107806D01*
X293688Y107512D01*
X294247Y107204D01*
X294799Y106883D01*
X295342Y106548D01*
X295877Y106200D01*
X296403Y105839D01*
X296920Y105465D01*
X297428Y105079D01*
X297926Y104680D01*
X298414Y104269D01*
X298893Y103847D01*
X299360Y103412D01*
X299817Y102967D01*
X300262Y102510D01*
X300697Y102043D01*
X301119Y101564D01*
X301530Y101076D01*
X301929Y100578D01*
X302315Y100070D01*
X302689Y99553D01*
X303050Y99027D01*
X303398Y98492D01*
X303733Y97949D01*
X304054Y97397D01*
X304362Y96838D01*
X304656Y96272D01*
X304936Y95698D01*
X305201Y95118D01*
X305453Y94532D01*
X305690Y93939D01*
X305912Y93341D01*
X306120Y92738D01*
X306312Y92129D01*
X306490Y91517D01*
X306653Y90899D01*
X306800Y90279D01*
X306932Y89654D01*
X307049Y89027D01*
X307151Y88397D01*
X307236Y87765D01*
X307307Y87130D01*
X307362Y86495D01*
X307401Y85858D01*
X307424Y85220D01*
X307432Y84582D01*
X307424Y83944D01*
X307401Y83306D01*
X307362Y82669D01*
X307307Y82034D01*
X307236Y81399D01*
X307151Y80767D01*
X307049Y80137D01*
X306932Y79510D01*
X306800Y78885D01*
X306653Y78265D01*
X306490Y77647D01*
X306312Y77035D01*
X306120Y76426D01*
X305912Y75823D01*
X305690Y75225D01*
X305453Y74632D01*
X305201Y74046D01*
X304936Y73466D01*
X304656Y72892D01*
X304362Y72326D01*
X304054Y71767D01*
X303733Y71215D01*
X303398Y70672D01*
X303050Y70137D01*
X302689Y69611D01*
X302315Y69094D01*
X301929Y68586D01*
X301530Y68088D01*
X301119Y67600D01*
X300697Y67121D01*
X300262Y66654D01*
X299817Y66197D01*
X299360Y65752D01*
X298893Y65317D01*
X298414Y64895D01*
X297926Y64484D01*
X297428Y64085D01*
X296920Y63699D01*
X296403Y63325D01*
X295877Y62964D01*
X295342Y62616D01*
X294799Y62281D01*
X294247Y61960D01*
X293688Y61652D01*
X293122Y61358D01*
X292548Y61078D01*
X291968Y60813D01*
X291382Y60561D01*
X290789Y60324D01*
X290191Y60102D01*
X289588Y59894D01*
X288979Y59702D01*
X288367Y59524D01*
X287749Y59361D01*
X287129Y59214D01*
X286504Y59082D01*
X285877Y58965D01*
X285247Y58863D01*
X284615Y58778D01*
X283980Y58707D01*
X283345Y58652D01*
X282708Y58613D01*
X282070Y58590D01*
X281432Y58582D01*
X280794Y58590D01*
X280156Y58613D01*
X279519Y58652D01*
X278884Y58707D01*
X278249Y58778D01*
X277617Y58863D01*
X276987Y58965D01*
X276360Y59082D01*
X275735Y59214D01*
X275115Y59361D01*
X274497Y59524D01*
X273885Y59702D01*
X273276Y59894D01*
X272673Y60102D01*
X272075Y60324D01*
X271482Y60561D01*
X270896Y60813D01*
X270316Y61078D01*
X269742Y61358D01*
X269176Y61652D01*
X268617Y61960D01*
X268065Y62281D01*
X267522Y62616D01*
X266987Y62964D01*
X266461Y63325D01*
X265944Y63699D01*
X265436Y64085D01*
X264938Y64484D01*
X264450Y64895D01*
X263971Y65317D01*
X263504Y65752D01*
X263047Y66197D01*
X262602Y66654D01*
X262167Y67121D01*
X261745Y67600D01*
X261334Y68088D01*
X260935Y68586D01*
X260549Y69094D01*
X260175Y69611D01*
X259814Y70137D01*
X259466Y70672D01*
X259131Y71215D01*
X258810Y71767D01*
X258502Y72326D01*
X258208Y72892D01*
X257928Y73466D01*
X257663Y74046D01*
X257411Y74632D01*
X257174Y75225D01*
X256952Y75823D01*
X256744Y76426D01*
X256552Y77035D01*
X256374Y77647D01*
X256211Y78265D01*
X256064Y78885D01*
X255932Y79510D01*
X255815Y80137D01*
X255713Y80767D01*
X255628Y81399D01*
X255557Y82034D01*
X255502Y82669D01*
X255463Y83306D01*
X255440Y83944D01*
X255432Y84582D01*
M02*
