G04 EAGLE Gerber RS-274X export*
G75*
%MOMM*%
%FSLAX34Y34*%
%LPD*%
%INBottom Copper*%
%IPPOS*%
%AMOC8*
5,1,8,0,0,1.08239X$1,22.5*%
G01*
%ADD10C,1.320800*%
%ADD11C,0.609600*%
%ADD12C,0.304800*%
%ADD13C,0.203200*%

G36*
X311922Y5216D02*
X311922Y5216D01*
X311977Y5215D01*
X312043Y5236D01*
X312112Y5247D01*
X312160Y5273D01*
X312211Y5289D01*
X312268Y5330D01*
X312329Y5363D01*
X312366Y5402D01*
X312410Y5434D01*
X312450Y5490D01*
X312498Y5541D01*
X312521Y5590D01*
X312553Y5634D01*
X312573Y5701D01*
X312602Y5764D01*
X312608Y5818D01*
X312624Y5870D01*
X312621Y5939D01*
X312629Y6008D01*
X312618Y6061D01*
X312616Y6116D01*
X312592Y6181D01*
X312577Y6249D01*
X312549Y6295D01*
X312530Y6346D01*
X312466Y6435D01*
X312451Y6460D01*
X312442Y6467D01*
X312431Y6482D01*
X307907Y11445D01*
X304489Y20269D01*
X304489Y29731D01*
X307907Y38555D01*
X314282Y45549D01*
X322753Y49767D01*
X332176Y50640D01*
X341278Y48050D01*
X348372Y42692D01*
X348389Y42683D01*
X348403Y42670D01*
X348498Y42626D01*
X348590Y42578D01*
X348609Y42575D01*
X348626Y42567D01*
X348730Y42555D01*
X348833Y42539D01*
X348852Y42542D01*
X348870Y42540D01*
X348972Y42562D01*
X349075Y42579D01*
X349092Y42588D01*
X349111Y42592D01*
X349200Y42645D01*
X349293Y42694D01*
X349306Y42708D01*
X349322Y42718D01*
X349390Y42797D01*
X349461Y42873D01*
X349469Y42891D01*
X349482Y42905D01*
X349521Y43002D01*
X349565Y43097D01*
X349567Y43115D01*
X349574Y43133D01*
X349592Y43300D01*
X349592Y348831D01*
X349589Y348851D01*
X349591Y348870D01*
X349569Y348972D01*
X349553Y349074D01*
X349543Y349091D01*
X349539Y349111D01*
X349486Y349200D01*
X349437Y349291D01*
X349423Y349305D01*
X349413Y349322D01*
X349334Y349389D01*
X349259Y349461D01*
X349241Y349469D01*
X349226Y349482D01*
X349130Y349521D01*
X349036Y349564D01*
X349016Y349566D01*
X348998Y349574D01*
X348831Y349592D01*
X43063Y349592D01*
X43062Y349592D01*
X43061Y349592D01*
X42936Y349572D01*
X42820Y349553D01*
X42819Y349552D01*
X42818Y349552D01*
X42705Y349492D01*
X42603Y349437D01*
X42602Y349437D01*
X42601Y349436D01*
X42514Y349344D01*
X42433Y349259D01*
X42433Y349258D01*
X42432Y349258D01*
X42377Y349138D01*
X42330Y349036D01*
X42330Y349035D01*
X42329Y349034D01*
X42316Y348912D01*
X42303Y348792D01*
X42303Y348791D01*
X42303Y348790D01*
X42328Y348676D01*
X42355Y348551D01*
X42355Y348550D01*
X42416Y348449D01*
X42481Y348340D01*
X42482Y348340D01*
X42482Y348339D01*
X42604Y348224D01*
X44029Y347147D01*
X49011Y339102D01*
X50750Y329800D01*
X49011Y320498D01*
X44029Y312453D01*
X36478Y306750D01*
X27376Y304160D01*
X17953Y305033D01*
X9482Y309251D01*
X6532Y312488D01*
X6462Y312544D01*
X6397Y312605D01*
X6366Y312620D01*
X6339Y312641D01*
X6255Y312671D01*
X6174Y312709D01*
X6140Y312713D01*
X6107Y312724D01*
X6018Y312726D01*
X5930Y312736D01*
X5896Y312728D01*
X5861Y312729D01*
X5776Y312702D01*
X5689Y312684D01*
X5660Y312666D01*
X5627Y312655D01*
X5555Y312603D01*
X5478Y312557D01*
X5456Y312531D01*
X5428Y312511D01*
X5376Y312438D01*
X5318Y312370D01*
X5305Y312338D01*
X5285Y312310D01*
X5260Y312225D01*
X5226Y312142D01*
X5221Y312098D01*
X5214Y312075D01*
X5215Y312043D01*
X5208Y311976D01*
X5208Y42824D01*
X5222Y42737D01*
X5229Y42648D01*
X5242Y42616D01*
X5247Y42582D01*
X5289Y42503D01*
X5324Y42421D01*
X5346Y42395D01*
X5363Y42364D01*
X5427Y42303D01*
X5486Y42236D01*
X5516Y42219D01*
X5541Y42195D01*
X5622Y42157D01*
X5699Y42113D01*
X5733Y42106D01*
X5764Y42091D01*
X5853Y42082D01*
X5940Y42064D01*
X5974Y42068D01*
X6008Y42064D01*
X6095Y42083D01*
X6184Y42094D01*
X6215Y42109D01*
X6249Y42116D01*
X6325Y42162D01*
X6406Y42201D01*
X6439Y42230D01*
X6460Y42243D01*
X6481Y42267D01*
X6532Y42312D01*
X9482Y45549D01*
X17953Y49767D01*
X22037Y50145D01*
X22072Y50154D01*
X22109Y50155D01*
X22191Y50185D01*
X22275Y50207D01*
X22305Y50227D01*
X22340Y50240D01*
X22408Y50294D01*
X22481Y50342D01*
X22503Y50370D01*
X22532Y50393D01*
X22579Y50466D01*
X22633Y50535D01*
X22645Y50569D01*
X22665Y50600D01*
X22686Y50685D01*
X22715Y50766D01*
X22716Y50803D01*
X22725Y50839D01*
X22718Y50925D01*
X22720Y51012D01*
X22709Y51047D01*
X22706Y51084D01*
X22672Y51164D01*
X22646Y51247D01*
X22624Y51277D01*
X22610Y51310D01*
X22505Y51441D01*
X19811Y54135D01*
X19811Y58133D01*
X21366Y59688D01*
X21419Y59762D01*
X21479Y59832D01*
X21491Y59862D01*
X21510Y59888D01*
X21537Y59975D01*
X21571Y60060D01*
X21575Y60101D01*
X21582Y60123D01*
X21581Y60155D01*
X21589Y60227D01*
X21589Y103603D01*
X21575Y103693D01*
X21567Y103784D01*
X21555Y103814D01*
X21550Y103846D01*
X21507Y103927D01*
X21471Y104011D01*
X21445Y104043D01*
X21434Y104063D01*
X21411Y104086D01*
X21366Y104142D01*
X19811Y105697D01*
X19811Y109695D01*
X22639Y112523D01*
X24838Y112523D01*
X24928Y112537D01*
X25019Y112545D01*
X25049Y112557D01*
X25081Y112562D01*
X25161Y112605D01*
X25245Y112641D01*
X25277Y112667D01*
X25298Y112678D01*
X25317Y112698D01*
X25319Y112699D01*
X25325Y112704D01*
X25376Y112746D01*
X58704Y146074D01*
X58757Y146148D01*
X58817Y146217D01*
X58829Y146247D01*
X58848Y146274D01*
X58875Y146361D01*
X58909Y146445D01*
X58913Y146486D01*
X58920Y146509D01*
X58919Y146541D01*
X58927Y146612D01*
X58927Y222751D01*
X81056Y244880D01*
X81109Y244954D01*
X81169Y245023D01*
X81181Y245053D01*
X81200Y245080D01*
X81227Y245167D01*
X81261Y245251D01*
X81265Y245292D01*
X81272Y245315D01*
X81271Y245347D01*
X81279Y245418D01*
X81279Y247617D01*
X84107Y250445D01*
X88105Y250445D01*
X90933Y247617D01*
X90933Y243619D01*
X88105Y240791D01*
X85906Y240791D01*
X85816Y240777D01*
X85725Y240769D01*
X85695Y240757D01*
X85663Y240752D01*
X85583Y240709D01*
X85499Y240673D01*
X85467Y240647D01*
X85446Y240636D01*
X85424Y240613D01*
X85368Y240568D01*
X65248Y220448D01*
X65195Y220374D01*
X65135Y220305D01*
X65123Y220275D01*
X65104Y220248D01*
X65077Y220161D01*
X65043Y220077D01*
X65039Y220036D01*
X65032Y220013D01*
X65033Y219981D01*
X65025Y219910D01*
X65025Y143771D01*
X63016Y141762D01*
X29688Y108434D01*
X29635Y108360D01*
X29575Y108291D01*
X29563Y108261D01*
X29544Y108234D01*
X29517Y108147D01*
X29483Y108063D01*
X29479Y108022D01*
X29472Y107999D01*
X29473Y107967D01*
X29465Y107896D01*
X29465Y105697D01*
X27910Y104142D01*
X27857Y104068D01*
X27797Y103998D01*
X27785Y103968D01*
X27766Y103942D01*
X27739Y103855D01*
X27705Y103770D01*
X27701Y103729D01*
X27694Y103707D01*
X27695Y103675D01*
X27687Y103603D01*
X27687Y60227D01*
X27701Y60137D01*
X27709Y60046D01*
X27721Y60016D01*
X27726Y59984D01*
X27769Y59903D01*
X27805Y59819D01*
X27831Y59787D01*
X27842Y59767D01*
X27865Y59744D01*
X27910Y59688D01*
X29465Y58133D01*
X29465Y54135D01*
X27197Y51867D01*
X27145Y51794D01*
X27086Y51727D01*
X27074Y51695D01*
X27054Y51667D01*
X27027Y51582D01*
X26993Y51499D01*
X26991Y51465D01*
X26981Y51432D01*
X26984Y51343D01*
X26978Y51253D01*
X26987Y51221D01*
X26988Y51186D01*
X27018Y51102D01*
X27042Y51016D01*
X27060Y50987D01*
X27072Y50955D01*
X27128Y50886D01*
X27178Y50811D01*
X27205Y50790D01*
X27226Y50763D01*
X27301Y50715D01*
X27372Y50660D01*
X27412Y50644D01*
X27433Y50630D01*
X27464Y50623D01*
X27527Y50597D01*
X36477Y48050D01*
X44029Y42347D01*
X49011Y34302D01*
X50750Y25000D01*
X49011Y15698D01*
X44029Y7653D01*
X42604Y6576D01*
X42603Y6576D01*
X42603Y6575D01*
X42519Y6487D01*
X42434Y6398D01*
X42433Y6397D01*
X42380Y6282D01*
X42330Y6176D01*
X42330Y6175D01*
X42330Y6174D01*
X42316Y6053D01*
X42302Y5931D01*
X42303Y5930D01*
X42328Y5811D01*
X42354Y5691D01*
X42355Y5690D01*
X42355Y5689D01*
X42416Y5587D01*
X42480Y5479D01*
X42481Y5479D01*
X42481Y5478D01*
X42573Y5399D01*
X42666Y5319D01*
X42667Y5319D01*
X42668Y5318D01*
X42788Y5270D01*
X42894Y5227D01*
X42895Y5227D01*
X42896Y5226D01*
X43063Y5208D01*
X311869Y5208D01*
X311922Y5216D01*
G37*
%LPC*%
G36*
X88933Y88137D02*
X88933Y88137D01*
X86105Y90965D01*
X86105Y94963D01*
X88933Y97791D01*
X92931Y97791D01*
X94486Y96236D01*
X94560Y96183D01*
X94630Y96123D01*
X94660Y96111D01*
X94686Y96092D01*
X94773Y96065D01*
X94858Y96031D01*
X94899Y96027D01*
X94921Y96020D01*
X94953Y96021D01*
X95025Y96013D01*
X105889Y96013D01*
X105979Y96027D01*
X106070Y96035D01*
X106100Y96047D01*
X106132Y96052D01*
X106213Y96095D01*
X106297Y96131D01*
X106329Y96157D01*
X106349Y96168D01*
X106372Y96191D01*
X106428Y96236D01*
X107983Y97791D01*
X111981Y97791D01*
X113536Y96236D01*
X113610Y96183D01*
X113680Y96123D01*
X113710Y96111D01*
X113736Y96092D01*
X113823Y96065D01*
X113908Y96031D01*
X113949Y96027D01*
X113971Y96020D01*
X114003Y96021D01*
X114075Y96013D01*
X155165Y96013D01*
X155255Y96027D01*
X155346Y96035D01*
X155376Y96047D01*
X155408Y96052D01*
X155489Y96095D01*
X155573Y96131D01*
X155605Y96157D01*
X155625Y96168D01*
X155648Y96191D01*
X155704Y96236D01*
X157259Y97791D01*
X161257Y97791D01*
X162812Y96236D01*
X162886Y96183D01*
X162956Y96123D01*
X162986Y96111D01*
X163012Y96092D01*
X163099Y96065D01*
X163184Y96031D01*
X163225Y96027D01*
X163247Y96020D01*
X163279Y96021D01*
X163351Y96013D01*
X322297Y96013D01*
X322387Y96027D01*
X322478Y96035D01*
X322508Y96047D01*
X322540Y96052D01*
X322621Y96095D01*
X322705Y96131D01*
X322737Y96157D01*
X322757Y96168D01*
X322780Y96191D01*
X322836Y96236D01*
X323118Y96518D01*
X323171Y96592D01*
X323231Y96662D01*
X323243Y96692D01*
X323262Y96718D01*
X323289Y96805D01*
X323323Y96890D01*
X323327Y96931D01*
X323334Y96953D01*
X323333Y96985D01*
X323341Y97057D01*
X323341Y193795D01*
X330484Y200938D01*
X330537Y201012D01*
X330597Y201081D01*
X330609Y201111D01*
X330628Y201138D01*
X330655Y201225D01*
X330689Y201309D01*
X330693Y201350D01*
X330700Y201373D01*
X330699Y201405D01*
X330707Y201476D01*
X330707Y203675D01*
X333535Y206503D01*
X337533Y206503D01*
X340361Y203675D01*
X340361Y199677D01*
X337533Y196849D01*
X335334Y196849D01*
X335244Y196835D01*
X335153Y196827D01*
X335123Y196815D01*
X335091Y196810D01*
X335011Y196767D01*
X334927Y196731D01*
X334895Y196705D01*
X334874Y196694D01*
X334852Y196671D01*
X334796Y196626D01*
X329662Y191492D01*
X329617Y191429D01*
X329570Y191381D01*
X329563Y191365D01*
X329549Y191349D01*
X329537Y191319D01*
X329518Y191292D01*
X329496Y191221D01*
X329467Y191158D01*
X329465Y191139D01*
X329457Y191121D01*
X329453Y191080D01*
X329446Y191057D01*
X329447Y191025D01*
X329439Y190954D01*
X329439Y97057D01*
X329453Y96967D01*
X329461Y96876D01*
X329473Y96846D01*
X329478Y96814D01*
X329521Y96733D01*
X329557Y96649D01*
X329583Y96617D01*
X329594Y96597D01*
X329617Y96574D01*
X329662Y96518D01*
X331217Y94963D01*
X331217Y90965D01*
X328389Y88137D01*
X324391Y88137D01*
X322836Y89692D01*
X322762Y89745D01*
X322692Y89805D01*
X322662Y89817D01*
X322636Y89836D01*
X322549Y89863D01*
X322464Y89897D01*
X322423Y89901D01*
X322401Y89908D01*
X322369Y89907D01*
X322297Y89915D01*
X163351Y89915D01*
X163261Y89901D01*
X163170Y89893D01*
X163140Y89881D01*
X163108Y89876D01*
X163027Y89833D01*
X162943Y89797D01*
X162911Y89771D01*
X162891Y89760D01*
X162868Y89737D01*
X162812Y89692D01*
X161257Y88137D01*
X157259Y88137D01*
X155704Y89692D01*
X155630Y89745D01*
X155560Y89805D01*
X155530Y89817D01*
X155504Y89836D01*
X155417Y89863D01*
X155332Y89897D01*
X155291Y89901D01*
X155269Y89908D01*
X155237Y89907D01*
X155165Y89915D01*
X114075Y89915D01*
X113985Y89901D01*
X113894Y89893D01*
X113864Y89881D01*
X113832Y89876D01*
X113751Y89833D01*
X113667Y89797D01*
X113635Y89771D01*
X113615Y89760D01*
X113592Y89737D01*
X113536Y89692D01*
X111981Y88137D01*
X107983Y88137D01*
X106428Y89692D01*
X106354Y89745D01*
X106284Y89805D01*
X106254Y89817D01*
X106228Y89836D01*
X106141Y89863D01*
X106056Y89897D01*
X106015Y89901D01*
X105993Y89908D01*
X105961Y89907D01*
X105889Y89915D01*
X95025Y89915D01*
X94935Y89901D01*
X94844Y89893D01*
X94814Y89881D01*
X94782Y89876D01*
X94701Y89833D01*
X94617Y89797D01*
X94585Y89771D01*
X94565Y89760D01*
X94542Y89737D01*
X94486Y89692D01*
X92931Y88137D01*
X88933Y88137D01*
G37*
%LPD*%
%LPC*%
G36*
X147861Y162559D02*
X147861Y162559D01*
X145798Y164622D01*
X145724Y164675D01*
X145654Y164735D01*
X145624Y164747D01*
X145598Y164766D01*
X145511Y164793D01*
X145426Y164827D01*
X145385Y164831D01*
X145363Y164838D01*
X145331Y164837D01*
X145259Y164845D01*
X128742Y164845D01*
X96453Y197134D01*
X96379Y197187D01*
X96309Y197247D01*
X96279Y197259D01*
X96253Y197278D01*
X96166Y197305D01*
X96081Y197339D01*
X96040Y197343D01*
X96018Y197350D01*
X95986Y197349D01*
X95914Y197357D01*
X92997Y197357D01*
X90169Y200185D01*
X90169Y204183D01*
X92839Y206853D01*
X92850Y206869D01*
X92866Y206881D01*
X92922Y206969D01*
X92982Y207052D01*
X92988Y207071D01*
X92999Y207088D01*
X93024Y207189D01*
X93055Y207288D01*
X93054Y207307D01*
X93059Y207327D01*
X93051Y207430D01*
X93048Y207533D01*
X93041Y207552D01*
X93040Y207572D01*
X92999Y207667D01*
X92964Y207764D01*
X92951Y207780D01*
X92943Y207798D01*
X92839Y207929D01*
X90169Y210599D01*
X90169Y214597D01*
X92997Y217425D01*
X96995Y217425D01*
X99823Y214597D01*
X99823Y211680D01*
X99837Y211590D01*
X99845Y211499D01*
X99857Y211469D01*
X99862Y211437D01*
X99905Y211356D01*
X99941Y211272D01*
X99967Y211240D01*
X99978Y211220D01*
X100001Y211197D01*
X100046Y211141D01*
X130877Y180310D01*
X130951Y180257D01*
X131021Y180197D01*
X131051Y180185D01*
X131077Y180166D01*
X131164Y180139D01*
X131249Y180105D01*
X131290Y180101D01*
X131312Y180094D01*
X131344Y180095D01*
X131416Y180087D01*
X146529Y180087D01*
X146619Y180101D01*
X146710Y180109D01*
X146740Y180121D01*
X146772Y180126D01*
X146853Y180169D01*
X146937Y180205D01*
X146969Y180231D01*
X146989Y180242D01*
X147012Y180265D01*
X147068Y180310D01*
X149131Y182373D01*
X153129Y182373D01*
X155957Y179545D01*
X155957Y176628D01*
X155971Y176538D01*
X155979Y176447D01*
X155991Y176417D01*
X155996Y176385D01*
X156039Y176304D01*
X156075Y176220D01*
X156101Y176188D01*
X156112Y176168D01*
X156135Y176145D01*
X156180Y176089D01*
X158563Y173706D01*
X158637Y173653D01*
X158707Y173593D01*
X158737Y173581D01*
X158763Y173562D01*
X158850Y173535D01*
X158935Y173501D01*
X158976Y173497D01*
X158998Y173490D01*
X159030Y173491D01*
X159102Y173483D01*
X162019Y173483D01*
X164847Y170655D01*
X164847Y166657D01*
X162019Y163829D01*
X158021Y163829D01*
X155986Y165864D01*
X155928Y165906D01*
X155876Y165955D01*
X155829Y165977D01*
X155787Y166007D01*
X155718Y166028D01*
X155653Y166059D01*
X155601Y166064D01*
X155551Y166080D01*
X155480Y166078D01*
X155409Y166086D01*
X155358Y166075D01*
X155306Y166073D01*
X155238Y166049D01*
X155168Y166033D01*
X155123Y166007D01*
X155075Y165989D01*
X155019Y165944D01*
X154957Y165907D01*
X154923Y165868D01*
X154883Y165835D01*
X154844Y165775D01*
X154797Y165720D01*
X154778Y165672D01*
X154750Y165628D01*
X154732Y165559D01*
X154705Y165492D01*
X154697Y165421D01*
X154689Y165390D01*
X154689Y165389D01*
X151859Y162559D01*
X147861Y162559D01*
G37*
%LPD*%
%LPC*%
G36*
X32877Y202945D02*
X32877Y202945D01*
X29796Y204221D01*
X27437Y206580D01*
X26161Y209661D01*
X26161Y212995D01*
X27437Y216076D01*
X29796Y218435D01*
X32877Y219711D01*
X36211Y219711D01*
X39292Y218435D01*
X41651Y216076D01*
X42927Y212995D01*
X42927Y209661D01*
X41651Y206580D01*
X39292Y204221D01*
X36211Y202945D01*
X32877Y202945D01*
G37*
%LPD*%
%LPC*%
G36*
X32877Y154685D02*
X32877Y154685D01*
X29796Y155961D01*
X27437Y158320D01*
X26161Y161401D01*
X26161Y164735D01*
X27437Y167816D01*
X29796Y170175D01*
X32877Y171451D01*
X36211Y171451D01*
X39292Y170175D01*
X41651Y167816D01*
X42927Y164735D01*
X42927Y161401D01*
X41651Y158320D01*
X39292Y155961D01*
X36211Y154685D01*
X32877Y154685D01*
G37*
%LPD*%
%LPC*%
G36*
X116619Y29971D02*
X116619Y29971D01*
X113791Y32799D01*
X113791Y36797D01*
X115854Y38860D01*
X115907Y38934D01*
X115967Y39004D01*
X115979Y39034D01*
X115998Y39060D01*
X116025Y39147D01*
X116059Y39232D01*
X116063Y39273D01*
X116070Y39295D01*
X116069Y39327D01*
X116077Y39399D01*
X116077Y47977D01*
X116063Y48067D01*
X116055Y48158D01*
X116043Y48188D01*
X116038Y48220D01*
X115995Y48301D01*
X115959Y48385D01*
X115933Y48417D01*
X115922Y48437D01*
X115899Y48460D01*
X115854Y48516D01*
X113791Y50579D01*
X113791Y54577D01*
X116619Y57405D01*
X120617Y57405D01*
X123445Y54577D01*
X123445Y50579D01*
X121382Y48516D01*
X121329Y48442D01*
X121269Y48372D01*
X121257Y48342D01*
X121238Y48316D01*
X121211Y48229D01*
X121177Y48144D01*
X121173Y48103D01*
X121166Y48081D01*
X121167Y48049D01*
X121159Y47977D01*
X121159Y39399D01*
X121173Y39309D01*
X121181Y39218D01*
X121193Y39188D01*
X121198Y39156D01*
X121241Y39075D01*
X121277Y38991D01*
X121303Y38959D01*
X121314Y38939D01*
X121337Y38916D01*
X121382Y38860D01*
X123445Y36797D01*
X123445Y32799D01*
X120617Y29971D01*
X116619Y29971D01*
G37*
%LPD*%
D10*
X34544Y163068D03*
X34544Y211328D03*
D11*
X160020Y15240D03*
X172720Y15240D03*
X185420Y15240D03*
X106680Y15240D03*
X93980Y15240D03*
X83820Y15240D03*
X134620Y50800D03*
X134620Y60960D03*
X134620Y71120D03*
X134620Y81280D03*
X63500Y78740D03*
X63500Y88900D03*
X63500Y99060D03*
X86360Y342900D03*
X96520Y342900D03*
X106680Y342900D03*
X116840Y342900D03*
X127000Y342900D03*
X137160Y342900D03*
X63500Y109220D03*
X63500Y119380D03*
X63500Y129540D03*
X63500Y137160D03*
X337820Y99060D03*
X337820Y88900D03*
X337820Y78740D03*
X337820Y68580D03*
X337820Y58420D03*
X337820Y215900D03*
X337820Y226060D03*
X337820Y236220D03*
X337820Y246380D03*
X337820Y256540D03*
X337820Y266700D03*
X337820Y276860D03*
X337820Y287020D03*
X267970Y153670D03*
X267970Y163830D03*
X267970Y173990D03*
X267970Y184150D03*
X267970Y194310D03*
X267970Y204470D03*
X267970Y214630D03*
X267970Y224790D03*
X267970Y234950D03*
X267970Y245110D03*
X267970Y255270D03*
X267970Y265430D03*
X17780Y269240D03*
X17780Y279400D03*
X17780Y289560D03*
X17780Y299720D03*
X114300Y205740D03*
X114300Y215900D03*
X114300Y226060D03*
X91440Y236220D03*
X107188Y84074D03*
X127000Y193040D03*
X127000Y203200D03*
X127000Y213360D03*
X127000Y223520D03*
X35560Y269240D03*
X35560Y279400D03*
X35560Y289560D03*
X35560Y299720D03*
X53340Y269240D03*
X53340Y279400D03*
X53340Y289560D03*
X53340Y299720D03*
X207010Y153670D03*
X207010Y163830D03*
X207010Y173990D03*
X207010Y184150D03*
X207010Y194310D03*
X207010Y204470D03*
X207010Y214630D03*
X207010Y224790D03*
X207010Y234950D03*
X207010Y245110D03*
X207010Y255270D03*
X207010Y265430D03*
X227330Y153670D03*
X227330Y163830D03*
X227330Y173990D03*
X227330Y184150D03*
X227330Y194310D03*
X227330Y204470D03*
X227330Y214630D03*
X227330Y224790D03*
X227330Y234950D03*
X227330Y245110D03*
X227330Y255270D03*
X227330Y265430D03*
X248920Y153670D03*
X248920Y163830D03*
X248920Y173990D03*
X248920Y184150D03*
X248920Y194310D03*
X248920Y204470D03*
X248920Y214630D03*
X248920Y224790D03*
X248920Y234950D03*
X248920Y245110D03*
X248920Y255270D03*
X248920Y265430D03*
X77470Y92710D03*
X77470Y102870D03*
X77470Y113030D03*
X77470Y123190D03*
X90932Y92964D03*
D12*
X109982Y92964D01*
D11*
X109982Y92964D03*
D12*
X159258Y92964D01*
D11*
X159258Y92964D03*
X24638Y107696D03*
D12*
X24638Y56134D01*
D11*
X24638Y56134D03*
X335534Y201676D03*
D12*
X326390Y192532D01*
X326390Y92964D01*
D11*
X326390Y92964D03*
D12*
X159258Y92964D01*
X61976Y145034D02*
X24638Y107696D01*
D11*
X86106Y245618D03*
D12*
X61976Y221488D01*
X61976Y145034D01*
D11*
X118618Y34798D03*
D13*
X118618Y52578D01*
D11*
X118618Y52578D03*
X160020Y168656D03*
D13*
X130048Y177546D02*
X94996Y212598D01*
D11*
X94996Y212598D03*
D13*
X130048Y177546D02*
X151130Y177546D01*
X160020Y168656D01*
D11*
X151130Y177546D03*
X149860Y167386D03*
D13*
X129794Y167386D01*
X94996Y202184D01*
D11*
X94996Y202184D03*
M02*
