G04 EAGLE Gerber RS-274X export*
G75*
%MOMM*%
%FSLAX34Y34*%
%LPD*%
%IN*%
%IPPOS*%
%AMOC8*
5,1,8,0,0,1.08239X$1,22.5*%
G01*
%ADD10C,0.025400*%
%ADD11C,0.000000*%


D10*
X0Y0D02*
X354800Y0D01*
X354800Y354800D01*
X0Y354800D01*
X0Y0D01*
D11*
X10000Y329800D02*
X10005Y330168D01*
X10018Y330536D01*
X10041Y330903D01*
X10072Y331270D01*
X10113Y331636D01*
X10162Y332001D01*
X10221Y332364D01*
X10288Y332726D01*
X10364Y333087D01*
X10450Y333445D01*
X10543Y333801D01*
X10646Y334154D01*
X10757Y334505D01*
X10877Y334853D01*
X11005Y335198D01*
X11142Y335540D01*
X11287Y335879D01*
X11440Y336213D01*
X11602Y336544D01*
X11771Y336871D01*
X11949Y337193D01*
X12134Y337512D01*
X12327Y337825D01*
X12528Y338134D01*
X12736Y338437D01*
X12952Y338735D01*
X13175Y339028D01*
X13405Y339316D01*
X13642Y339598D01*
X13886Y339873D01*
X14136Y340143D01*
X14393Y340407D01*
X14657Y340664D01*
X14927Y340914D01*
X15202Y341158D01*
X15484Y341395D01*
X15772Y341625D01*
X16065Y341848D01*
X16363Y342064D01*
X16666Y342272D01*
X16975Y342473D01*
X17288Y342666D01*
X17607Y342851D01*
X17929Y343029D01*
X18256Y343198D01*
X18587Y343360D01*
X18921Y343513D01*
X19260Y343658D01*
X19602Y343795D01*
X19947Y343923D01*
X20295Y344043D01*
X20646Y344154D01*
X20999Y344257D01*
X21355Y344350D01*
X21713Y344436D01*
X22074Y344512D01*
X22436Y344579D01*
X22799Y344638D01*
X23164Y344687D01*
X23530Y344728D01*
X23897Y344759D01*
X24264Y344782D01*
X24632Y344795D01*
X25000Y344800D01*
X25368Y344795D01*
X25736Y344782D01*
X26103Y344759D01*
X26470Y344728D01*
X26836Y344687D01*
X27201Y344638D01*
X27564Y344579D01*
X27926Y344512D01*
X28287Y344436D01*
X28645Y344350D01*
X29001Y344257D01*
X29354Y344154D01*
X29705Y344043D01*
X30053Y343923D01*
X30398Y343795D01*
X30740Y343658D01*
X31079Y343513D01*
X31413Y343360D01*
X31744Y343198D01*
X32071Y343029D01*
X32393Y342851D01*
X32712Y342666D01*
X33025Y342473D01*
X33334Y342272D01*
X33637Y342064D01*
X33935Y341848D01*
X34228Y341625D01*
X34516Y341395D01*
X34798Y341158D01*
X35073Y340914D01*
X35343Y340664D01*
X35607Y340407D01*
X35864Y340143D01*
X36114Y339873D01*
X36358Y339598D01*
X36595Y339316D01*
X36825Y339028D01*
X37048Y338735D01*
X37264Y338437D01*
X37472Y338134D01*
X37673Y337825D01*
X37866Y337512D01*
X38051Y337193D01*
X38229Y336871D01*
X38398Y336544D01*
X38560Y336213D01*
X38713Y335879D01*
X38858Y335540D01*
X38995Y335198D01*
X39123Y334853D01*
X39243Y334505D01*
X39354Y334154D01*
X39457Y333801D01*
X39550Y333445D01*
X39636Y333087D01*
X39712Y332726D01*
X39779Y332364D01*
X39838Y332001D01*
X39887Y331636D01*
X39928Y331270D01*
X39959Y330903D01*
X39982Y330536D01*
X39995Y330168D01*
X40000Y329800D01*
X39995Y329432D01*
X39982Y329064D01*
X39959Y328697D01*
X39928Y328330D01*
X39887Y327964D01*
X39838Y327599D01*
X39779Y327236D01*
X39712Y326874D01*
X39636Y326513D01*
X39550Y326155D01*
X39457Y325799D01*
X39354Y325446D01*
X39243Y325095D01*
X39123Y324747D01*
X38995Y324402D01*
X38858Y324060D01*
X38713Y323721D01*
X38560Y323387D01*
X38398Y323056D01*
X38229Y322729D01*
X38051Y322407D01*
X37866Y322088D01*
X37673Y321775D01*
X37472Y321466D01*
X37264Y321163D01*
X37048Y320865D01*
X36825Y320572D01*
X36595Y320284D01*
X36358Y320002D01*
X36114Y319727D01*
X35864Y319457D01*
X35607Y319193D01*
X35343Y318936D01*
X35073Y318686D01*
X34798Y318442D01*
X34516Y318205D01*
X34228Y317975D01*
X33935Y317752D01*
X33637Y317536D01*
X33334Y317328D01*
X33025Y317127D01*
X32712Y316934D01*
X32393Y316749D01*
X32071Y316571D01*
X31744Y316402D01*
X31413Y316240D01*
X31079Y316087D01*
X30740Y315942D01*
X30398Y315805D01*
X30053Y315677D01*
X29705Y315557D01*
X29354Y315446D01*
X29001Y315343D01*
X28645Y315250D01*
X28287Y315164D01*
X27926Y315088D01*
X27564Y315021D01*
X27201Y314962D01*
X26836Y314913D01*
X26470Y314872D01*
X26103Y314841D01*
X25736Y314818D01*
X25368Y314805D01*
X25000Y314800D01*
X24632Y314805D01*
X24264Y314818D01*
X23897Y314841D01*
X23530Y314872D01*
X23164Y314913D01*
X22799Y314962D01*
X22436Y315021D01*
X22074Y315088D01*
X21713Y315164D01*
X21355Y315250D01*
X20999Y315343D01*
X20646Y315446D01*
X20295Y315557D01*
X19947Y315677D01*
X19602Y315805D01*
X19260Y315942D01*
X18921Y316087D01*
X18587Y316240D01*
X18256Y316402D01*
X17929Y316571D01*
X17607Y316749D01*
X17288Y316934D01*
X16975Y317127D01*
X16666Y317328D01*
X16363Y317536D01*
X16065Y317752D01*
X15772Y317975D01*
X15484Y318205D01*
X15202Y318442D01*
X14927Y318686D01*
X14657Y318936D01*
X14393Y319193D01*
X14136Y319457D01*
X13886Y319727D01*
X13642Y320002D01*
X13405Y320284D01*
X13175Y320572D01*
X12952Y320865D01*
X12736Y321163D01*
X12528Y321466D01*
X12327Y321775D01*
X12134Y322088D01*
X11949Y322407D01*
X11771Y322729D01*
X11602Y323056D01*
X11440Y323387D01*
X11287Y323721D01*
X11142Y324060D01*
X11005Y324402D01*
X10877Y324747D01*
X10757Y325095D01*
X10646Y325446D01*
X10543Y325799D01*
X10450Y326155D01*
X10364Y326513D01*
X10288Y326874D01*
X10221Y327236D01*
X10162Y327599D01*
X10113Y327964D01*
X10072Y328330D01*
X10041Y328697D01*
X10018Y329064D01*
X10005Y329432D01*
X10000Y329800D01*
X10000Y25000D02*
X10005Y25368D01*
X10018Y25736D01*
X10041Y26103D01*
X10072Y26470D01*
X10113Y26836D01*
X10162Y27201D01*
X10221Y27564D01*
X10288Y27926D01*
X10364Y28287D01*
X10450Y28645D01*
X10543Y29001D01*
X10646Y29354D01*
X10757Y29705D01*
X10877Y30053D01*
X11005Y30398D01*
X11142Y30740D01*
X11287Y31079D01*
X11440Y31413D01*
X11602Y31744D01*
X11771Y32071D01*
X11949Y32393D01*
X12134Y32712D01*
X12327Y33025D01*
X12528Y33334D01*
X12736Y33637D01*
X12952Y33935D01*
X13175Y34228D01*
X13405Y34516D01*
X13642Y34798D01*
X13886Y35073D01*
X14136Y35343D01*
X14393Y35607D01*
X14657Y35864D01*
X14927Y36114D01*
X15202Y36358D01*
X15484Y36595D01*
X15772Y36825D01*
X16065Y37048D01*
X16363Y37264D01*
X16666Y37472D01*
X16975Y37673D01*
X17288Y37866D01*
X17607Y38051D01*
X17929Y38229D01*
X18256Y38398D01*
X18587Y38560D01*
X18921Y38713D01*
X19260Y38858D01*
X19602Y38995D01*
X19947Y39123D01*
X20295Y39243D01*
X20646Y39354D01*
X20999Y39457D01*
X21355Y39550D01*
X21713Y39636D01*
X22074Y39712D01*
X22436Y39779D01*
X22799Y39838D01*
X23164Y39887D01*
X23530Y39928D01*
X23897Y39959D01*
X24264Y39982D01*
X24632Y39995D01*
X25000Y40000D01*
X25368Y39995D01*
X25736Y39982D01*
X26103Y39959D01*
X26470Y39928D01*
X26836Y39887D01*
X27201Y39838D01*
X27564Y39779D01*
X27926Y39712D01*
X28287Y39636D01*
X28645Y39550D01*
X29001Y39457D01*
X29354Y39354D01*
X29705Y39243D01*
X30053Y39123D01*
X30398Y38995D01*
X30740Y38858D01*
X31079Y38713D01*
X31413Y38560D01*
X31744Y38398D01*
X32071Y38229D01*
X32393Y38051D01*
X32712Y37866D01*
X33025Y37673D01*
X33334Y37472D01*
X33637Y37264D01*
X33935Y37048D01*
X34228Y36825D01*
X34516Y36595D01*
X34798Y36358D01*
X35073Y36114D01*
X35343Y35864D01*
X35607Y35607D01*
X35864Y35343D01*
X36114Y35073D01*
X36358Y34798D01*
X36595Y34516D01*
X36825Y34228D01*
X37048Y33935D01*
X37264Y33637D01*
X37472Y33334D01*
X37673Y33025D01*
X37866Y32712D01*
X38051Y32393D01*
X38229Y32071D01*
X38398Y31744D01*
X38560Y31413D01*
X38713Y31079D01*
X38858Y30740D01*
X38995Y30398D01*
X39123Y30053D01*
X39243Y29705D01*
X39354Y29354D01*
X39457Y29001D01*
X39550Y28645D01*
X39636Y28287D01*
X39712Y27926D01*
X39779Y27564D01*
X39838Y27201D01*
X39887Y26836D01*
X39928Y26470D01*
X39959Y26103D01*
X39982Y25736D01*
X39995Y25368D01*
X40000Y25000D01*
X39995Y24632D01*
X39982Y24264D01*
X39959Y23897D01*
X39928Y23530D01*
X39887Y23164D01*
X39838Y22799D01*
X39779Y22436D01*
X39712Y22074D01*
X39636Y21713D01*
X39550Y21355D01*
X39457Y20999D01*
X39354Y20646D01*
X39243Y20295D01*
X39123Y19947D01*
X38995Y19602D01*
X38858Y19260D01*
X38713Y18921D01*
X38560Y18587D01*
X38398Y18256D01*
X38229Y17929D01*
X38051Y17607D01*
X37866Y17288D01*
X37673Y16975D01*
X37472Y16666D01*
X37264Y16363D01*
X37048Y16065D01*
X36825Y15772D01*
X36595Y15484D01*
X36358Y15202D01*
X36114Y14927D01*
X35864Y14657D01*
X35607Y14393D01*
X35343Y14136D01*
X35073Y13886D01*
X34798Y13642D01*
X34516Y13405D01*
X34228Y13175D01*
X33935Y12952D01*
X33637Y12736D01*
X33334Y12528D01*
X33025Y12327D01*
X32712Y12134D01*
X32393Y11949D01*
X32071Y11771D01*
X31744Y11602D01*
X31413Y11440D01*
X31079Y11287D01*
X30740Y11142D01*
X30398Y11005D01*
X30053Y10877D01*
X29705Y10757D01*
X29354Y10646D01*
X29001Y10543D01*
X28645Y10450D01*
X28287Y10364D01*
X27926Y10288D01*
X27564Y10221D01*
X27201Y10162D01*
X26836Y10113D01*
X26470Y10072D01*
X26103Y10041D01*
X25736Y10018D01*
X25368Y10005D01*
X25000Y10000D01*
X24632Y10005D01*
X24264Y10018D01*
X23897Y10041D01*
X23530Y10072D01*
X23164Y10113D01*
X22799Y10162D01*
X22436Y10221D01*
X22074Y10288D01*
X21713Y10364D01*
X21355Y10450D01*
X20999Y10543D01*
X20646Y10646D01*
X20295Y10757D01*
X19947Y10877D01*
X19602Y11005D01*
X19260Y11142D01*
X18921Y11287D01*
X18587Y11440D01*
X18256Y11602D01*
X17929Y11771D01*
X17607Y11949D01*
X17288Y12134D01*
X16975Y12327D01*
X16666Y12528D01*
X16363Y12736D01*
X16065Y12952D01*
X15772Y13175D01*
X15484Y13405D01*
X15202Y13642D01*
X14927Y13886D01*
X14657Y14136D01*
X14393Y14393D01*
X14136Y14657D01*
X13886Y14927D01*
X13642Y15202D01*
X13405Y15484D01*
X13175Y15772D01*
X12952Y16065D01*
X12736Y16363D01*
X12528Y16666D01*
X12327Y16975D01*
X12134Y17288D01*
X11949Y17607D01*
X11771Y17929D01*
X11602Y18256D01*
X11440Y18587D01*
X11287Y18921D01*
X11142Y19260D01*
X11005Y19602D01*
X10877Y19947D01*
X10757Y20295D01*
X10646Y20646D01*
X10543Y20999D01*
X10450Y21355D01*
X10364Y21713D01*
X10288Y22074D01*
X10221Y22436D01*
X10162Y22799D01*
X10113Y23164D01*
X10072Y23530D01*
X10041Y23897D01*
X10018Y24264D01*
X10005Y24632D01*
X10000Y25000D01*
X314800Y25000D02*
X314805Y25368D01*
X314818Y25736D01*
X314841Y26103D01*
X314872Y26470D01*
X314913Y26836D01*
X314962Y27201D01*
X315021Y27564D01*
X315088Y27926D01*
X315164Y28287D01*
X315250Y28645D01*
X315343Y29001D01*
X315446Y29354D01*
X315557Y29705D01*
X315677Y30053D01*
X315805Y30398D01*
X315942Y30740D01*
X316087Y31079D01*
X316240Y31413D01*
X316402Y31744D01*
X316571Y32071D01*
X316749Y32393D01*
X316934Y32712D01*
X317127Y33025D01*
X317328Y33334D01*
X317536Y33637D01*
X317752Y33935D01*
X317975Y34228D01*
X318205Y34516D01*
X318442Y34798D01*
X318686Y35073D01*
X318936Y35343D01*
X319193Y35607D01*
X319457Y35864D01*
X319727Y36114D01*
X320002Y36358D01*
X320284Y36595D01*
X320572Y36825D01*
X320865Y37048D01*
X321163Y37264D01*
X321466Y37472D01*
X321775Y37673D01*
X322088Y37866D01*
X322407Y38051D01*
X322729Y38229D01*
X323056Y38398D01*
X323387Y38560D01*
X323721Y38713D01*
X324060Y38858D01*
X324402Y38995D01*
X324747Y39123D01*
X325095Y39243D01*
X325446Y39354D01*
X325799Y39457D01*
X326155Y39550D01*
X326513Y39636D01*
X326874Y39712D01*
X327236Y39779D01*
X327599Y39838D01*
X327964Y39887D01*
X328330Y39928D01*
X328697Y39959D01*
X329064Y39982D01*
X329432Y39995D01*
X329800Y40000D01*
X330168Y39995D01*
X330536Y39982D01*
X330903Y39959D01*
X331270Y39928D01*
X331636Y39887D01*
X332001Y39838D01*
X332364Y39779D01*
X332726Y39712D01*
X333087Y39636D01*
X333445Y39550D01*
X333801Y39457D01*
X334154Y39354D01*
X334505Y39243D01*
X334853Y39123D01*
X335198Y38995D01*
X335540Y38858D01*
X335879Y38713D01*
X336213Y38560D01*
X336544Y38398D01*
X336871Y38229D01*
X337193Y38051D01*
X337512Y37866D01*
X337825Y37673D01*
X338134Y37472D01*
X338437Y37264D01*
X338735Y37048D01*
X339028Y36825D01*
X339316Y36595D01*
X339598Y36358D01*
X339873Y36114D01*
X340143Y35864D01*
X340407Y35607D01*
X340664Y35343D01*
X340914Y35073D01*
X341158Y34798D01*
X341395Y34516D01*
X341625Y34228D01*
X341848Y33935D01*
X342064Y33637D01*
X342272Y33334D01*
X342473Y33025D01*
X342666Y32712D01*
X342851Y32393D01*
X343029Y32071D01*
X343198Y31744D01*
X343360Y31413D01*
X343513Y31079D01*
X343658Y30740D01*
X343795Y30398D01*
X343923Y30053D01*
X344043Y29705D01*
X344154Y29354D01*
X344257Y29001D01*
X344350Y28645D01*
X344436Y28287D01*
X344512Y27926D01*
X344579Y27564D01*
X344638Y27201D01*
X344687Y26836D01*
X344728Y26470D01*
X344759Y26103D01*
X344782Y25736D01*
X344795Y25368D01*
X344800Y25000D01*
X344795Y24632D01*
X344782Y24264D01*
X344759Y23897D01*
X344728Y23530D01*
X344687Y23164D01*
X344638Y22799D01*
X344579Y22436D01*
X344512Y22074D01*
X344436Y21713D01*
X344350Y21355D01*
X344257Y20999D01*
X344154Y20646D01*
X344043Y20295D01*
X343923Y19947D01*
X343795Y19602D01*
X343658Y19260D01*
X343513Y18921D01*
X343360Y18587D01*
X343198Y18256D01*
X343029Y17929D01*
X342851Y17607D01*
X342666Y17288D01*
X342473Y16975D01*
X342272Y16666D01*
X342064Y16363D01*
X341848Y16065D01*
X341625Y15772D01*
X341395Y15484D01*
X341158Y15202D01*
X340914Y14927D01*
X340664Y14657D01*
X340407Y14393D01*
X340143Y14136D01*
X339873Y13886D01*
X339598Y13642D01*
X339316Y13405D01*
X339028Y13175D01*
X338735Y12952D01*
X338437Y12736D01*
X338134Y12528D01*
X337825Y12327D01*
X337512Y12134D01*
X337193Y11949D01*
X336871Y11771D01*
X336544Y11602D01*
X336213Y11440D01*
X335879Y11287D01*
X335540Y11142D01*
X335198Y11005D01*
X334853Y10877D01*
X334505Y10757D01*
X334154Y10646D01*
X333801Y10543D01*
X333445Y10450D01*
X333087Y10364D01*
X332726Y10288D01*
X332364Y10221D01*
X332001Y10162D01*
X331636Y10113D01*
X331270Y10072D01*
X330903Y10041D01*
X330536Y10018D01*
X330168Y10005D01*
X329800Y10000D01*
X329432Y10005D01*
X329064Y10018D01*
X328697Y10041D01*
X328330Y10072D01*
X327964Y10113D01*
X327599Y10162D01*
X327236Y10221D01*
X326874Y10288D01*
X326513Y10364D01*
X326155Y10450D01*
X325799Y10543D01*
X325446Y10646D01*
X325095Y10757D01*
X324747Y10877D01*
X324402Y11005D01*
X324060Y11142D01*
X323721Y11287D01*
X323387Y11440D01*
X323056Y11602D01*
X322729Y11771D01*
X322407Y11949D01*
X322088Y12134D01*
X321775Y12327D01*
X321466Y12528D01*
X321163Y12736D01*
X320865Y12952D01*
X320572Y13175D01*
X320284Y13405D01*
X320002Y13642D01*
X319727Y13886D01*
X319457Y14136D01*
X319193Y14393D01*
X318936Y14657D01*
X318686Y14927D01*
X318442Y15202D01*
X318205Y15484D01*
X317975Y15772D01*
X317752Y16065D01*
X317536Y16363D01*
X317328Y16666D01*
X317127Y16975D01*
X316934Y17288D01*
X316749Y17607D01*
X316571Y17929D01*
X316402Y18256D01*
X316240Y18587D01*
X316087Y18921D01*
X315942Y19260D01*
X315805Y19602D01*
X315677Y19947D01*
X315557Y20295D01*
X315446Y20646D01*
X315343Y20999D01*
X315250Y21355D01*
X315164Y21713D01*
X315088Y22074D01*
X315021Y22436D01*
X314962Y22799D01*
X314913Y23164D01*
X314872Y23530D01*
X314841Y23897D01*
X314818Y24264D01*
X314805Y24632D01*
X314800Y25000D01*
M02*
