M48
;GenerationSoftware,Autodesk,EAGLE,9.2.2*%
;CreationDate,2018-12-07T03:02:26Z*%
FMAT,2
ICI,OFF
METRIC,TZ,000.000
T3C0.305
T2C0.813
T1C3.000
%
G90
M71
T1
X2500Y32980
X2500Y2500
X32980Y2500
T2
X3454Y21133
X3454Y16307
T3
X8382Y1524
X13462Y5080
X13462Y6096
X13462Y7112
X13462Y8128
X6350Y7874
X6350Y8890
X6350Y9906
X8636Y34290
X9652Y34290
X10668Y34290
X11684Y34290
X12700Y34290
X13716Y34290
X6350Y10922
X6350Y11938
X6350Y12954
X6350Y13716
X33782Y9906
X33782Y8890
X33782Y7874
X33782Y6858
X33782Y5842
X33782Y21590
X33782Y22606
X33782Y23622
X33782Y24638
X33782Y25654
X33782Y26670
X33782Y27686
X33782Y28702
X26797Y15367
X26797Y16383
X26797Y17399
X26797Y18415
X26797Y19431
X26797Y20447
X26797Y21463
X26797Y22479
X26797Y23495
X26797Y24511
X26797Y25527
X26797Y26543
X1778Y26924
X1778Y27940
X1778Y28956
X1778Y29972
X11430Y20574
X11430Y21590
X11430Y22606
X9144Y23622
X10719Y8407
X12700Y19304
X12700Y20320
X12700Y21336
X12700Y22352
X3556Y26924
X3556Y27940
X3556Y28956
X3556Y29972
X5334Y26924
X5334Y27940
X5334Y28956
X5334Y29972
X20701Y15367
X20701Y16383
X20701Y17399
X20701Y18415
X20701Y19431
X20701Y20447
X20701Y21463
X20701Y22479
X20701Y23495
X20701Y24511
X20701Y25527
X20701Y26543
X22733Y15367
X22733Y16383
X22733Y17399
X22733Y18415
X22733Y19431
X22733Y20447
X22733Y21463
X22733Y22479
X22733Y23495
X22733Y24511
X22733Y25527
X22733Y26543
X24892Y15367
X24892Y16383
X24892Y17399
X16002Y1524
X24892Y19431
X24892Y20447
X24892Y21463
X24892Y22479
X24892Y23495
X24892Y24511
X24892Y25527
X24892Y26543
X7747Y9271
X7747Y10287
X7747Y11303
X7747Y12319
X9093Y9296
X10998Y9296
X15926Y9296
X24892Y18415
X2464Y5613
X33553Y20168
X32639Y9296
X8611Y24562
X11862Y3480
X11862Y5258
X16002Y16866
X9500Y21260
X15113Y17755
X14986Y16739
X9500Y20218
X17272Y1524
X18542Y1524
X10668Y1524
X9398Y1524
X2464Y10770
M30